<?xml version="1.0" encoding="UTF-8"?>
<!DOCTYPE svg PUBLIC "-//W3C//DTD SVG 1.1//EN" "http://www.w3.org/Graphics/SVG/1.1/DTD/svg11.dtd">
<svg xmlns="http://www.w3.org/2000/svg" version="1.1" width="256px" height="256px" style="shape-rendering:geometricPrecision; text-rendering:geometricPrecision; image-rendering:optimizeQuality; fill-rule:evenodd; clip-rule:evenodd" xmlns:xlink="http://www.w3.org/1999/xlink">
<g><path style="opacity:0.989" fill="#cf4d1f" d="M 133.5,14.5 C 125.13,25.7588 119.963,38.4255 118,52.5C 116.707,63.7939 116.207,75.1272 116.5,86.5C 113.167,86.5 109.833,86.5 106.5,86.5C 106.5,88.5 106.5,90.5 106.5,92.5C 106.5,94.1667 106.5,95.8333 106.5,97.5C 106.784,99.4147 106.451,101.081 105.5,102.5C 104.178,80.5397 106.011,58.873 111,37.5C 113.254,29.66 116.587,22.3267 121,15.5C 125.055,10.8305 129.222,10.4972 133.5,14.5 Z"/></g>
<g><path style="opacity:0.988" fill="#f05a23" d="M 133.5,14.5 C 136.366,16.5459 138.533,19.2126 140,22.5C 148.795,42.9359 152.295,64.2693 150.5,86.5C 139.167,86.5 127.833,86.5 116.5,86.5C 116.207,75.1272 116.707,63.7939 118,52.5C 119.963,38.4255 125.13,25.7588 133.5,14.5 Z"/></g>
<g><path style="opacity:0.986" fill="#f5a937" d="M 116.5,86.5 C 127.833,86.5 139.167,86.5 150.5,86.5C 150.5,88.5 150.5,90.5 150.5,92.5C 135.833,92.5 121.167,92.5 106.5,92.5C 106.5,90.5 106.5,88.5 106.5,86.5C 109.833,86.5 113.167,86.5 116.5,86.5 Z"/></g>
<g><path style="opacity:1" fill="#f2901d" d="M 106.5,92.5 C 121.167,92.5 135.833,92.5 150.5,92.5C 150.5,94.1667 150.5,95.8333 150.5,97.5C 139.167,97.5 127.833,97.5 116.5,97.5C 113.167,97.5 109.833,97.5 106.5,97.5C 106.5,95.8333 106.5,94.1667 106.5,92.5 Z"/></g>
<g><path style="opacity:0.97" fill="#e29f35" d="M 106.5,97.5 C 109.833,97.5 113.167,97.5 116.5,97.5C 116.194,103.92 114.361,109.92 111,115.5C 110.5,150.832 110.333,186.165 110.5,221.5C 107.615,221.194 104.948,221.527 102.5,222.5C 101.504,222.586 100.671,222.252 100,221.5C 99.3333,186.5 99.3333,151.5 100,116.5C 102.124,111.924 103.957,107.257 105.5,102.5C 106.451,101.081 106.784,99.4147 106.5,97.5 Z"/></g>
<g><path style="opacity:0.998" fill="#faaf3a" d="M 116.5,97.5 C 127.833,97.5 139.167,97.5 150.5,97.5C 151.349,104.549 153.516,111.215 157,117.5C 157.667,151.833 157.667,186.167 157,220.5C 156.292,221.381 155.458,222.047 154.5,222.5C 139.912,221.517 125.245,221.184 110.5,221.5C 110.333,186.165 110.5,150.832 111,115.5C 114.361,109.92 116.194,103.92 116.5,97.5 Z"/></g>
<g><path style="opacity:1" fill="#f7cc8a" d="M 145.5,125.5 C 147.144,125.286 148.644,125.62 150,126.5C 150.667,133.167 150.667,139.833 150,146.5C 148.333,149.167 146.667,149.167 145,146.5C 144.205,139.42 144.372,132.42 145.5,125.5 Z"/></g>
<g><path style="opacity:1" fill="#f7cc8a" d="M 145.5,158.5 C 147.144,158.286 148.644,158.62 150,159.5C 150.667,173.167 150.667,186.833 150,200.5C 148.333,203.167 146.667,203.167 145,200.5C 144.186,186.425 144.352,172.425 145.5,158.5 Z"/></g>
<g><path style="opacity:0.993" fill="#f6931e" d="M 110.5,221.5 C 125.245,221.184 139.912,221.517 154.5,222.5C 154.5,224.833 154.5,227.167 154.5,229.5C 137.167,229.5 119.833,229.5 102.5,229.5C 102.5,227.167 102.5,224.833 102.5,222.5C 104.948,221.527 107.615,221.194 110.5,221.5 Z"/></g>
<g><path style="opacity:0.855" fill="#e29f35" d="M 102.5,229.5 C 104.265,230.461 106.265,230.795 108.5,230.5C 108.298,232.989 108.798,235.323 110,237.5C 112.848,240.152 116.015,242.152 119.5,243.5C 113.158,243.666 106.825,243.5 100.5,243C 99.3705,238.921 99.2039,234.755 100,230.5C 100.671,229.748 101.504,229.414 102.5,229.5 Z"/></g>
<g><path style="opacity:0.951" fill="#faae3a" d="M 102.5,229.5 C 119.833,229.5 137.167,229.5 154.5,229.5C 155.8,231.223 156.467,233.39 156.5,236C 156.47,238.424 156.137,240.757 155.5,243C 143.505,243.5 131.505,243.667 119.5,243.5C 116.015,242.152 112.848,240.152 110,237.5C 108.798,235.323 108.298,232.989 108.5,230.5C 106.265,230.795 104.265,230.461 102.5,229.5 Z"/></g>
</svg>
