<?xml version="1.0" encoding="UTF-8"?>
<!DOCTYPE svg PUBLIC "-//W3C//DTD SVG 1.1//EN" "http://www.w3.org/Graphics/SVG/1.1/DTD/svg11.dtd">
<svg xmlns="http://www.w3.org/2000/svg" version="1.1" width="58px" height="232px" style="shape-rendering:geometricPrecision; text-rendering:geometricPrecision; image-rendering:optimizeQuality; fill-rule:evenodd; clip-rule:evenodd" xmlns:xlink="http://www.w3.org/1999/xlink">
<g><path style="opacity:1" fill="#fefcfc" d="M -0.5,-0.5 C 18.8333,-0.5 38.1667,-0.5 57.5,-0.5C 57.5,34.5 57.5,69.5 57.5,104.5C 54.2813,98.9807 52.2813,92.9807 51.5,86.5C 51.5,84.8333 51.5,83.1667 51.5,81.5C 51.5,79.5 51.5,77.5 51.5,75.5C 53.1745,54.0592 50.0079,33.3926 42,13.5C 40.3251,10.0149 38.1584,7.01488 35.5,4.5C 31.99,1.16663 27.99,0.666632 23.5,3C 15.327,14.5121 10.4936,27.3454 9,41.5C 6.82538,57.7575 5.99204,74.0909 6.5,90.5C 5.16568,95.6684 3.33234,100.668 1,105.5C 0.333333,140.5 0.333333,175.5 1,210.5C 1.67076,211.252 2.5041,211.586 3.5,211.5C 3.5,213.833 3.5,216.167 3.5,218.5C 2.5041,218.414 1.67076,218.748 1,219.5C 0.502671,223.524 0.669338,227.524 1.5,231.5C 0.833333,231.5 0.166667,231.5 -0.5,231.5C -0.5,154.167 -0.5,76.8333 -0.5,-0.5 Z"/></g>
<g><path style="opacity:1" fill="#d35428" d="M 35.5,4.5 C 25.4166,16.5634 19.9166,30.5634 19,46.5C 18.5002,56.1609 18.3335,65.8276 18.5,75.5C 14.8333,75.5 11.1667,75.5 7.5,75.5C 7.5,77.5 7.5,79.5 7.5,81.5C 7.5,83.1667 7.5,84.8333 7.5,86.5C 7.76781,88.099 7.43448,89.4324 6.5,90.5C 5.99204,74.0909 6.82538,57.7575 9,41.5C 10.4936,27.3454 15.327,14.5121 23.5,3C 27.99,0.666632 31.99,1.16663 35.5,4.5 Z"/></g>
<g><path style="opacity:1" fill="#f05d27" d="M 35.5,4.5 C 38.1584,7.01488 40.3251,10.0149 42,13.5C 50.0079,33.3926 53.1745,54.0592 51.5,75.5C 40.5,75.5 29.5,75.5 18.5,75.5C 18.3335,65.8276 18.5002,56.1609 19,46.5C 19.9166,30.5634 25.4166,16.5634 35.5,4.5 Z"/></g>
<g><path style="opacity:1" fill="#f4aa39" d="M 18.5,75.5 C 29.5,75.5 40.5,75.5 51.5,75.5C 51.5,77.5 51.5,79.5 51.5,81.5C 36.8333,81.5 22.1667,81.5 7.5,81.5C 7.5,79.5 7.5,77.5 7.5,75.5C 11.1667,75.5 14.8333,75.5 18.5,75.5 Z"/></g>
<g><path style="opacity:1" fill="#f1901c" d="M 7.5,81.5 C 22.1667,81.5 36.8333,81.5 51.5,81.5C 51.5,83.1667 51.5,84.8333 51.5,86.5C 40.1667,86.5 28.8333,86.5 17.5,86.5C 14.1667,86.5 10.8333,86.5 7.5,86.5C 7.5,84.8333 7.5,83.1667 7.5,81.5 Z"/></g>
<g><path style="opacity:1" fill="#e5a542" d="M 7.5,86.5 C 10.8333,86.5 14.1667,86.5 17.5,86.5C 17.5369,92.5587 16.0369,98.2254 13,103.5C 12.1791,139.163 11.6791,174.83 11.5,210.5C 24.3443,210.171 37.011,210.505 49.5,211.5C 34.1667,211.5 18.8333,211.5 3.5,211.5C 2.5041,211.586 1.67076,211.252 1,210.5C 0.333333,175.5 0.333333,140.5 1,105.5C 3.33234,100.668 5.16568,95.6684 6.5,90.5C 7.43448,89.4324 7.76781,88.099 7.5,86.5 Z"/></g>
<g><path style="opacity:1" fill="#faaf3b" d="M 17.5,86.5 C 28.8333,86.5 40.1667,86.5 51.5,86.5C 52.2813,92.9807 54.2813,98.9807 57.5,104.5C 57.5,139.833 57.5,175.167 57.5,210.5C 56.8333,210.833 56.1667,211.167 55.5,211.5C 53.5,211.5 51.5,211.5 49.5,211.5C 37.011,210.505 24.3443,210.171 11.5,210.5C 11.6791,174.83 12.1791,139.163 13,103.5C 16.0369,98.2254 17.5369,92.5587 17.5,86.5 Z"/></g>
<g><path style="opacity:1" fill="#f7c983" d="M 46.5,114.5 C 47.9305,114.421 49.2638,114.754 50.5,115.5C 51.6642,122.142 51.8309,128.808 51,135.5C 49.3333,138.167 47.6667,138.167 46,135.5C 45.2803,128.464 45.4469,121.464 46.5,114.5 Z"/></g>
<g><path style="opacity:1" fill="#f7c984" d="M 46.5,147.5 C 47.9305,147.421 49.2638,147.754 50.5,148.5C 51.6661,162.154 51.8327,175.821 51,189.5C 49.3333,192.167 47.6667,192.167 46,189.5C 45.2575,175.479 45.4242,161.479 46.5,147.5 Z"/></g>
<g><path style="opacity:1" fill="#f5941f" d="M 3.5,211.5 C 18.8333,211.5 34.1667,211.5 49.5,211.5C 51.5,211.5 53.5,211.5 55.5,211.5C 55.5,213.833 55.5,216.167 55.5,218.5C 38.8333,218.5 22.1667,218.5 5.5,218.5C 4.83333,218.5 4.16667,218.5 3.5,218.5C 3.5,216.167 3.5,213.833 3.5,211.5 Z"/></g>
<g><path style="opacity:1" fill="#fffbf6" d="M 57.5,210.5 C 57.5,214.167 57.5,217.833 57.5,221.5C 56.5987,220.71 55.9321,219.71 55.5,218.5C 55.5,216.167 55.5,213.833 55.5,211.5C 56.1667,211.167 56.8333,210.833 57.5,210.5 Z"/></g>
<g><path style="opacity:1" fill="#fab244" d="M 5.5,218.5 C 22.1667,218.5 38.8333,218.5 55.5,218.5C 55.9321,219.71 56.5987,220.71 57.5,221.5C 57.5,224.833 57.5,228.167 57.5,231.5C 44.5,231.5 31.5,231.5 18.5,231.5C 13.6898,229.353 10.6898,225.686 9.5,220.5C 8.05084,219.828 6.7175,219.161 5.5,218.5 Z"/></g>
<g><path style="opacity:1" fill="#e8b057" d="M 3.5,218.5 C 4.16667,218.5 4.83333,218.5 5.5,218.5C 6.7175,219.161 8.05084,219.828 9.5,220.5C 10.6898,225.686 13.6898,229.353 18.5,231.5C 12.8333,231.5 7.16667,231.5 1.5,231.5C 0.669338,227.524 0.502671,223.524 1,219.5C 1.67076,218.748 2.5041,218.414 3.5,218.5 Z"/></g>
</svg>
