<?xml version="1.0" encoding="UTF-8"?>
<!DOCTYPE svg PUBLIC "-//W3C//DTD SVG 1.1//EN" "http://www.w3.org/Graphics/SVG/1.1/DTD/svg11.dtd">
<svg xmlns="http://www.w3.org/2000/svg" version="1.1" width="800px" height="180px" style="shape-rendering:geometricPrecision; text-rendering:geometricPrecision; image-rendering:optimizeQuality; fill-rule:evenodd; clip-rule:evenodd" xmlns:xlink="http://www.w3.org/1999/xlink">
<g><path style="opacity:1" fill="#199128" d="M 39.5,39.5 C 39.5,42.8333 39.5,46.1667 39.5,49.5C 49.5,49.5 59.5,49.5 69.5,49.5C 69.5,52.8333 69.5,56.1667 69.5,59.5C 76.1667,59.5 82.8333,59.5 89.5,59.5C 89.5,56.1667 89.5,52.8333 89.5,49.5C 99.5,49.5 109.5,49.5 119.5,49.5C 119.5,52.8333 119.5,56.1667 119.5,59.5C 136.167,59.5 152.833,59.5 169.5,59.5C 169.5,62.8333 169.5,66.1667 169.5,69.5C 179.5,69.5 189.5,69.5 199.5,69.5C 199.5,66.1667 199.5,62.8333 199.5,59.5C 222.833,59.5 246.167,59.5 269.5,59.5C 269.5,56.1667 269.5,52.8333 269.5,49.5C 289.5,49.5 309.5,49.5 329.5,49.5C 329.5,52.8333 329.5,56.1667 329.5,59.5C 392.833,59.5 456.167,59.5 519.5,59.5C 519.5,56.1667 519.5,52.8333 519.5,49.5C 522.833,49.5 526.167,49.5 529.5,49.5C 529.5,46.1667 529.5,42.8333 529.5,39.5C 536.167,39.5 542.833,39.5 549.5,39.5C 549.5,42.8333 549.5,46.1667 549.5,49.5C 556.167,49.5 562.833,49.5 569.5,49.5C 569.5,52.8333 569.5,56.1667 569.5,59.5C 582.833,59.5 596.167,59.5 609.5,59.5C 609.5,56.1667 609.5,52.8333 609.5,49.5C 616.167,49.5 622.833,49.5 629.5,49.5C 629.5,52.8333 629.5,56.1667 629.5,59.5C 636.167,59.5 642.833,59.5 649.5,59.5C 649.5,62.8333 649.5,66.1667 649.5,69.5C 656.167,69.5 662.833,69.5 669.5,69.5C 669.5,66.1667 669.5,62.8333 669.5,59.5C 672.833,59.5 676.167,59.5 679.5,59.5C 679.5,56.1667 679.5,52.8333 679.5,49.5C 692.833,49.5 706.167,49.5 719.5,49.5C 719.5,52.8333 719.5,56.1667 719.5,59.5C 729.5,59.5 739.5,59.5 749.5,59.5C 749.5,56.1667 749.5,52.8333 749.5,49.5C 752.833,49.5 756.167,49.5 759.5,49.5C 759.5,46.1667 759.5,42.8333 759.5,39.5C 762.833,39.5 766.167,39.5 769.5,39.5C 769.5,42.8333 769.5,46.1667 769.5,49.5C 772.833,49.5 776.167,49.5 779.5,49.5C 779.5,59.5 779.5,69.5 779.5,79.5C 772.833,79.5 766.167,79.5 759.5,79.5C 759.5,76.1667 759.5,72.8333 759.5,69.5C 742.833,69.5 726.167,69.5 709.5,69.5C 709.5,66.1667 709.5,62.8333 709.5,59.5C 702.833,59.5 696.167,59.5 689.5,59.5C 689.5,62.8333 689.5,66.1667 689.5,69.5C 686.167,69.5 682.833,69.5 679.5,69.5C 679.5,72.8333 679.5,76.1667 679.5,79.5C 672.833,79.5 666.167,79.5 659.5,79.5C 659.5,82.8333 659.5,86.1667 659.5,89.5C 656.167,89.5 652.833,89.5 649.5,89.5C 649.5,92.8333 649.5,96.1667 649.5,99.5C 619.5,99.5 589.5,99.5 559.5,99.5C 559.5,96.1667 559.5,92.8333 559.5,89.5C 546.167,89.5 532.833,89.5 519.5,89.5C 519.5,92.8333 519.5,96.1667 519.5,99.5C 512.833,99.5 506.167,99.5 499.5,99.5C 499.5,96.1667 499.5,92.8333 499.5,89.5C 496.167,89.5 492.833,89.5 489.5,89.5C 489.5,86.1667 489.5,82.8333 489.5,79.5C 486.167,79.5 482.833,79.5 479.5,79.5C 479.5,76.1667 479.5,72.8333 479.5,69.5C 466.167,69.5 452.833,69.5 439.5,69.5C 439.5,72.8333 439.5,76.1667 439.5,79.5C 436.167,79.5 432.833,79.5 429.5,79.5C 426.167,79.5 422.833,79.5 419.5,79.5C 419.5,82.8333 419.5,86.1667 419.5,89.5C 416.167,89.5 412.833,89.5 409.5,89.5C 409.5,92.8333 409.5,96.1667 409.5,99.5C 406.167,99.5 402.833,99.5 399.5,99.5C 399.5,102.833 399.5,106.167 399.5,109.5C 386.167,109.5 372.833,109.5 359.5,109.5C 359.5,106.167 359.5,102.833 359.5,99.5C 356.167,99.5 352.833,99.5 349.5,99.5C 349.5,96.1667 349.5,92.8333 349.5,89.5C 326.167,89.5 302.833,89.5 279.5,89.5C 279.5,92.8333 279.5,96.1667 279.5,99.5C 269.5,99.5 259.5,99.5 249.5,99.5C 249.5,92.8333 249.5,86.1667 249.5,79.5C 246.167,79.5 242.833,79.5 239.5,79.5C 229.5,79.5 219.5,79.5 209.5,79.5C 209.5,82.8333 209.5,86.1667 209.5,89.5C 196.167,89.5 182.833,89.5 169.5,89.5C 169.5,92.8333 169.5,96.1667 169.5,99.5C 166.167,99.5 162.833,99.5 159.5,99.5C 159.5,102.833 159.5,106.167 159.5,109.5C 152.833,109.5 146.167,109.5 139.5,109.5C 139.5,106.167 139.5,102.833 139.5,99.5C 136.167,99.5 132.833,99.5 129.5,99.5C 129.5,96.1667 129.5,92.8333 129.5,89.5C 99.5,89.5 69.5,89.5 39.5,89.5C 39.5,79.5 39.5,69.5 39.5,59.5C 36.1667,59.5 32.8333,59.5 29.5,59.5C 29.5,56.1667 29.5,52.8333 29.5,49.5C 29.5,46.1667 29.5,42.8333 29.5,39.5C 32.8333,39.5 36.1667,39.5 39.5,39.5 Z"/></g>
<g><path style="opacity:1" fill="#21bd34" d="M 39.5,39.5 C 202.833,39.5 366.167,39.5 529.5,39.5C 529.5,42.8333 529.5,46.1667 529.5,49.5C 526.167,49.5 522.833,49.5 519.5,49.5C 519.5,52.8333 519.5,56.1667 519.5,59.5C 456.167,59.5 392.833,59.5 329.5,59.5C 329.5,56.1667 329.5,52.8333 329.5,49.5C 309.5,49.5 289.5,49.5 269.5,49.5C 269.5,52.8333 269.5,56.1667 269.5,59.5C 246.167,59.5 222.833,59.5 199.5,59.5C 199.5,62.8333 199.5,66.1667 199.5,69.5C 189.5,69.5 179.5,69.5 169.5,69.5C 169.5,66.1667 169.5,62.8333 169.5,59.5C 152.833,59.5 136.167,59.5 119.5,59.5C 119.5,56.1667 119.5,52.8333 119.5,49.5C 109.5,49.5 99.5,49.5 89.5,49.5C 89.5,52.8333 89.5,56.1667 89.5,59.5C 82.8333,59.5 76.1667,59.5 69.5,59.5C 69.5,56.1667 69.5,52.8333 69.5,49.5C 59.5,49.5 49.5,49.5 39.5,49.5C 39.5,46.1667 39.5,42.8333 39.5,39.5 Z"/></g>
<g><path style="opacity:1" fill="#21bd34" d="M 549.5,39.5 C 619.5,39.5 689.5,39.5 759.5,39.5C 759.5,42.8333 759.5,46.1667 759.5,49.5C 756.167,49.5 752.833,49.5 749.5,49.5C 749.5,52.8333 749.5,56.1667 749.5,59.5C 739.5,59.5 729.5,59.5 719.5,59.5C 719.5,56.1667 719.5,52.8333 719.5,49.5C 706.167,49.5 692.833,49.5 679.5,49.5C 679.5,52.8333 679.5,56.1667 679.5,59.5C 676.167,59.5 672.833,59.5 669.5,59.5C 669.5,62.8333 669.5,66.1667 669.5,69.5C 662.833,69.5 656.167,69.5 649.5,69.5C 649.5,66.1667 649.5,62.8333 649.5,59.5C 642.833,59.5 636.167,59.5 629.5,59.5C 629.5,56.1667 629.5,52.8333 629.5,49.5C 622.833,49.5 616.167,49.5 609.5,49.5C 609.5,52.8333 609.5,56.1667 609.5,59.5C 596.167,59.5 582.833,59.5 569.5,59.5C 569.5,56.1667 569.5,52.8333 569.5,49.5C 562.833,49.5 556.167,49.5 549.5,49.5C 549.5,46.1667 549.5,42.8333 549.5,39.5 Z"/></g>
<g><path style="opacity:1" fill="#0d4d15" d="M 29.5,49.5 C 29.5,52.8333 29.5,56.1667 29.5,59.5C 32.8333,59.5 36.1667,59.5 39.5,59.5C 39.5,69.5 39.5,79.5 39.5,89.5C 69.5,89.5 99.5,89.5 129.5,89.5C 129.5,92.8333 129.5,96.1667 129.5,99.5C 132.833,99.5 136.167,99.5 139.5,99.5C 139.5,102.833 139.5,106.167 139.5,109.5C 146.167,109.5 152.833,109.5 159.5,109.5C 159.5,106.167 159.5,102.833 159.5,99.5C 162.833,99.5 166.167,99.5 169.5,99.5C 169.5,96.1667 169.5,92.8333 169.5,89.5C 182.833,89.5 196.167,89.5 209.5,89.5C 209.5,92.8333 209.5,96.1667 209.5,99.5C 202.833,99.5 196.167,99.5 189.5,99.5C 189.5,102.833 189.5,106.167 189.5,109.5C 186.167,109.5 182.833,109.5 179.5,109.5C 179.5,116.167 179.5,122.833 179.5,129.5C 169.5,129.5 159.5,129.5 149.5,129.5C 149.5,126.167 149.5,122.833 149.5,119.5C 142.833,119.5 136.167,119.5 129.5,119.5C 129.5,116.167 129.5,112.833 129.5,109.5C 126.167,109.5 122.833,109.5 119.5,109.5C 119.5,106.167 119.5,102.833 119.5,99.5C 116.167,99.5 112.833,99.5 109.5,99.5C 109.5,102.833 109.5,106.167 109.5,109.5C 99.5,109.5 89.5,109.5 79.5,109.5C 79.5,106.167 79.5,102.833 79.5,99.5C 76.1667,99.5 72.8333,99.5 69.5,99.5C 69.5,102.833 69.5,106.167 69.5,109.5C 59.5,109.5 49.5,109.5 39.5,109.5C 39.5,106.167 39.5,102.833 39.5,99.5C 36.1667,99.5 32.8333,99.5 29.5,99.5C 29.5,89.5 29.5,79.5 29.5,69.5C 26.1667,69.5 22.8333,69.5 19.5,69.5C 19.5,62.8333 19.5,56.1667 19.5,49.5C 22.8333,49.5 26.1667,49.5 29.5,49.5 Z"/></g>
<g><path style="opacity:1" fill="#0d4d15" d="M 779.5,79.5 C 779.5,82.8333 779.5,86.1667 779.5,89.5C 776.167,89.5 772.833,89.5 769.5,89.5C 769.5,92.8333 769.5,96.1667 769.5,99.5C 762.833,99.5 756.167,99.5 749.5,99.5C 749.5,96.1667 749.5,92.8333 749.5,89.5C 746.167,89.5 742.833,89.5 739.5,89.5C 739.5,86.1667 739.5,82.8333 739.5,79.5C 719.5,79.5 699.5,79.5 679.5,79.5C 679.5,76.1667 679.5,72.8333 679.5,69.5C 682.833,69.5 686.167,69.5 689.5,69.5C 689.5,66.1667 689.5,62.8333 689.5,59.5C 696.167,59.5 702.833,59.5 709.5,59.5C 709.5,62.8333 709.5,66.1667 709.5,69.5C 726.167,69.5 742.833,69.5 759.5,69.5C 759.5,72.8333 759.5,76.1667 759.5,79.5C 766.167,79.5 772.833,79.5 779.5,79.5 Z"/></g>
<g><path style="opacity:1" fill="#44360b" d="M 19.5,69.5 C 22.8333,69.5 26.1667,69.5 29.5,69.5C 29.5,79.5 29.5,89.5 29.5,99.5C 26.1667,99.5 22.8333,99.5 19.5,99.5C 19.5,89.5 19.5,79.5 19.5,69.5 Z"/></g>
<g><path style="opacity:1" fill="#0d4d15" d="M 479.5,79.5 C 466.167,79.5 452.833,79.5 439.5,79.5C 439.5,76.1667 439.5,72.8333 439.5,69.5C 452.833,69.5 466.167,69.5 479.5,69.5C 479.5,72.8333 479.5,76.1667 479.5,79.5 Z"/></g>
<g><path style="opacity:1" fill="#44360b" d="M 239.5,79.5 C 239.5,82.8333 239.5,86.1667 239.5,89.5C 236.167,89.5 232.833,89.5 229.5,89.5C 229.5,99.5 229.5,109.5 229.5,119.5C 246.167,119.5 262.833,119.5 279.5,119.5C 279.5,112.833 279.5,106.167 279.5,99.5C 296.167,99.5 312.833,99.5 329.5,99.5C 329.5,106.167 329.5,112.833 329.5,119.5C 332.833,119.5 336.167,119.5 339.5,119.5C 339.5,122.833 339.5,126.167 339.5,129.5C 362.833,129.5 386.167,129.5 409.5,129.5C 409.5,126.167 409.5,122.833 409.5,119.5C 412.833,119.5 416.167,119.5 419.5,119.5C 419.5,109.5 419.5,99.5 419.5,89.5C 422.833,89.5 426.167,89.5 429.5,89.5C 429.5,86.1667 429.5,82.8333 429.5,79.5C 432.833,79.5 436.167,79.5 439.5,79.5C 452.833,79.5 466.167,79.5 479.5,79.5C 479.5,86.1667 479.5,92.8333 479.5,99.5C 486.167,99.5 492.833,99.5 499.5,99.5C 506.167,99.5 512.833,99.5 519.5,99.5C 522.833,99.5 526.167,99.5 529.5,99.5C 529.5,102.833 529.5,106.167 529.5,109.5C 536.167,109.5 542.833,109.5 549.5,109.5C 549.5,112.833 549.5,116.167 549.5,119.5C 566.167,119.5 582.833,119.5 599.5,119.5C 599.5,116.167 599.5,112.833 599.5,109.5C 619.5,109.5 639.5,109.5 659.5,109.5C 659.5,106.167 659.5,102.833 659.5,99.5C 662.833,99.5 666.167,99.5 669.5,99.5C 669.5,96.1667 669.5,92.8333 669.5,89.5C 672.833,89.5 676.167,89.5 679.5,89.5C 679.5,86.1667 679.5,82.8333 679.5,79.5C 699.5,79.5 719.5,79.5 739.5,79.5C 739.5,82.8333 739.5,86.1667 739.5,89.5C 742.833,89.5 746.167,89.5 749.5,89.5C 749.5,92.8333 749.5,96.1667 749.5,99.5C 756.167,99.5 762.833,99.5 769.5,99.5C 769.5,96.1667 769.5,92.8333 769.5,89.5C 772.833,89.5 776.167,89.5 779.5,89.5C 779.5,99.5 779.5,109.5 779.5,119.5C 776.167,119.5 772.833,119.5 769.5,119.5C 769.5,122.833 769.5,126.167 769.5,129.5C 766.167,129.5 762.833,129.5 759.5,129.5C 759.5,132.833 759.5,136.167 759.5,139.5C 749.5,139.5 739.5,139.5 729.5,139.5C 729.5,142.833 729.5,146.167 729.5,149.5C 509.5,149.5 289.5,149.5 69.5,149.5C 69.5,146.167 69.5,142.833 69.5,139.5C 62.8333,139.5 56.1667,139.5 49.5,139.5C 49.5,136.167 49.5,132.833 49.5,129.5C 42.8333,129.5 36.1667,129.5 29.5,129.5C 29.5,119.5 29.5,109.5 29.5,99.5C 32.8333,99.5 36.1667,99.5 39.5,99.5C 39.5,102.833 39.5,106.167 39.5,109.5C 49.5,109.5 59.5,109.5 69.5,109.5C 69.5,106.167 69.5,102.833 69.5,99.5C 72.8333,99.5 76.1667,99.5 79.5,99.5C 79.5,102.833 79.5,106.167 79.5,109.5C 89.5,109.5 99.5,109.5 109.5,109.5C 109.5,106.167 109.5,102.833 109.5,99.5C 112.833,99.5 116.167,99.5 119.5,99.5C 119.5,102.833 119.5,106.167 119.5,109.5C 122.833,109.5 126.167,109.5 129.5,109.5C 129.5,112.833 129.5,116.167 129.5,119.5C 136.167,119.5 142.833,119.5 149.5,119.5C 149.5,122.833 149.5,126.167 149.5,129.5C 159.5,129.5 169.5,129.5 179.5,129.5C 179.5,122.833 179.5,116.167 179.5,109.5C 182.833,109.5 186.167,109.5 189.5,109.5C 189.5,106.167 189.5,102.833 189.5,99.5C 196.167,99.5 202.833,99.5 209.5,99.5C 209.5,96.1667 209.5,92.8333 209.5,89.5C 209.5,86.1667 209.5,82.8333 209.5,79.5C 219.5,79.5 229.5,79.5 239.5,79.5 Z"/></g>
<g><path style="opacity:1" fill="#0d4d15" d="M 239.5,79.5 C 242.833,79.5 246.167,79.5 249.5,79.5C 249.5,86.1667 249.5,92.8333 249.5,99.5C 259.5,99.5 269.5,99.5 279.5,99.5C 279.5,106.167 279.5,112.833 279.5,119.5C 262.833,119.5 246.167,119.5 229.5,119.5C 229.5,109.5 229.5,99.5 229.5,89.5C 232.833,89.5 236.167,89.5 239.5,89.5C 239.5,86.1667 239.5,82.8333 239.5,79.5 Z"/></g>
<g><path style="opacity:1" fill="#0d4d15" d="M 429.5,79.5 C 429.5,82.8333 429.5,86.1667 429.5,89.5C 426.167,89.5 422.833,89.5 419.5,89.5C 419.5,86.1667 419.5,82.8333 419.5,79.5C 422.833,79.5 426.167,79.5 429.5,79.5 Z"/></g>
<g><path style="opacity:1" fill="#0d4d15" d="M 479.5,79.5 C 482.833,79.5 486.167,79.5 489.5,79.5C 489.5,82.8333 489.5,86.1667 489.5,89.5C 492.833,89.5 496.167,89.5 499.5,89.5C 499.5,92.8333 499.5,96.1667 499.5,99.5C 492.833,99.5 486.167,99.5 479.5,99.5C 479.5,92.8333 479.5,86.1667 479.5,79.5 Z"/></g>
<g><path style="opacity:1" fill="#0d4d15" d="M 679.5,79.5 C 679.5,82.8333 679.5,86.1667 679.5,89.5C 676.167,89.5 672.833,89.5 669.5,89.5C 669.5,92.8333 669.5,96.1667 669.5,99.5C 666.167,99.5 662.833,99.5 659.5,99.5C 659.5,102.833 659.5,106.167 659.5,109.5C 639.5,109.5 619.5,109.5 599.5,109.5C 599.5,112.833 599.5,116.167 599.5,119.5C 582.833,119.5 566.167,119.5 549.5,119.5C 549.5,116.167 549.5,112.833 549.5,109.5C 542.833,109.5 536.167,109.5 529.5,109.5C 529.5,106.167 529.5,102.833 529.5,99.5C 526.167,99.5 522.833,99.5 519.5,99.5C 519.5,96.1667 519.5,92.8333 519.5,89.5C 532.833,89.5 546.167,89.5 559.5,89.5C 559.5,92.8333 559.5,96.1667 559.5,99.5C 589.5,99.5 619.5,99.5 649.5,99.5C 649.5,96.1667 649.5,92.8333 649.5,89.5C 652.833,89.5 656.167,89.5 659.5,89.5C 659.5,86.1667 659.5,82.8333 659.5,79.5C 666.167,79.5 672.833,79.5 679.5,79.5 Z"/></g>
<g><path style="opacity:1" fill="#0d4d15" d="M 419.5,89.5 C 419.5,99.5 419.5,109.5 419.5,119.5C 416.167,119.5 412.833,119.5 409.5,119.5C 409.5,122.833 409.5,126.167 409.5,129.5C 386.167,129.5 362.833,129.5 339.5,129.5C 339.5,126.167 339.5,122.833 339.5,119.5C 336.167,119.5 332.833,119.5 329.5,119.5C 329.5,112.833 329.5,106.167 329.5,99.5C 312.833,99.5 296.167,99.5 279.5,99.5C 279.5,96.1667 279.5,92.8333 279.5,89.5C 302.833,89.5 326.167,89.5 349.5,89.5C 349.5,92.8333 349.5,96.1667 349.5,99.5C 352.833,99.5 356.167,99.5 359.5,99.5C 359.5,102.833 359.5,106.167 359.5,109.5C 372.833,109.5 386.167,109.5 399.5,109.5C 399.5,106.167 399.5,102.833 399.5,99.5C 402.833,99.5 406.167,99.5 409.5,99.5C 409.5,96.1667 409.5,92.8333 409.5,89.5C 412.833,89.5 416.167,89.5 419.5,89.5 Z"/></g>
</svg>
