<?xml version="1.0" encoding="UTF-8"?>
<!DOCTYPE svg PUBLIC "-//W3C//DTD SVG 1.1//EN" "http://www.w3.org/Graphics/SVG/1.1/DTD/svg11.dtd">
<svg xmlns="http://www.w3.org/2000/svg" version="1.1" width="538px" height="762px" style="shape-rendering:geometricPrecision; text-rendering:geometricPrecision; image-rendering:optimizeQuality; fill-rule:evenodd; clip-rule:evenodd" xmlns:xlink="http://www.w3.org/1999/xlink">
<g><path style="opacity:0.925" fill="#070606" d="M 189.5,-0.5 C 192.833,-0.5 196.167,-0.5 199.5,-0.5C 205.89,0.59404 212.39,1.59404 219,2.5C 230.481,40.4284 241.648,78.4284 252.5,116.5C 270.945,116.028 289.111,118.028 307,122.5C 315.972,119.433 324.806,115.933 333.5,112C 410.875,127.389 453.375,174.556 461,253.5C 462.79,267.995 463.29,282.495 462.5,297C 463.185,299.795 463.685,302.628 464,305.5C 472.654,314.32 481.487,322.987 490.5,331.5C 481.345,333.981 472.012,335.815 462.5,337C 461.692,337.308 461.025,337.808 460.5,338.5C 469.004,360.684 473.337,383.684 473.5,407.5C 460.74,405.681 448.074,403.348 435.5,400.5C 435.167,403.833 434.833,407.167 434.5,410.5C 435.567,426.16 436.067,441.827 436,457.5C 427.692,474.475 414.859,486.642 397.5,494C 395.444,494.311 393.444,494.811 391.5,495.5C 390.914,495.291 390.414,494.957 390,494.5C 388.417,484.168 386.917,473.835 385.5,463.5C 362.128,473.297 337.795,476.797 312.5,474C 323.169,482.342 327.336,493.175 325,506.5C 325.374,507.416 325.874,508.25 326.5,509C 336.376,509.95 344.543,514.117 351,521.5C 350.806,525.26 351.973,528.426 354.5,531C 367.164,532.667 377.498,538.5 385.5,548.5C 386.107,548.376 386.44,548.043 386.5,547.5C 388.341,548.402 389.674,549.736 390.5,551.5C 384.528,552.07 379.361,554.403 375,558.5C 374.601,558.272 374.435,557.938 374.5,557.5C 376.379,554.885 378.712,552.719 381.5,551C 365.403,533.679 350.403,534.512 336.5,553.5C 333.793,556.247 332.127,559.58 331.5,563.5C 327.614,573.677 330.28,581.843 339.5,588C 343.793,589.931 348.126,591.764 352.5,593.5C 353.386,594.325 353.719,595.325 353.5,596.5C 353.737,597.791 353.404,598.791 352.5,599.5C 346.471,596.637 340.471,593.47 334.5,590C 332.333,587.833 330.167,585.667 328,583.5C 325.889,574.034 320.055,569.867 310.5,571C 299.351,564.882 293.684,555.382 293.5,542.5C 288.474,539.641 284.641,535.641 282,530.5C 278.439,534.521 279.106,537.854 284,540.5C 284.667,549.833 284.667,559.167 284,568.5C 283.727,570.101 283.227,571.601 282.5,573C 290.294,588.421 297.127,604.254 303,620.5C 304.333,621.833 305.667,623.167 307,624.5C 308.814,623.24 310.647,623.24 312.5,624.5C 326.686,647.606 331.353,672.606 326.5,699.5C 355.908,696.283 377.408,707.617 391,733.5C 394.057,742.324 394.224,751.157 391.5,760C 349.5,760.667 307.5,760.667 265.5,760C 263.114,758.113 261.947,755.613 262,752.5C 259.119,735.531 263.285,720.697 274.5,708C 268.573,694.792 264.906,680.959 263.5,666.5C 265.524,663.26 266.858,659.76 267.5,656C 266.613,651.176 265.779,646.343 265,641.5C 253.479,628.947 242.313,616.114 231.5,603C 223.91,603.266 216.243,603.599 208.5,604C 196.739,618.768 184.572,633.268 172,647.5C 170.266,653.536 168.432,659.536 166.5,665.5C 167.599,668.296 168.599,671.129 169.5,674C 165.92,689.988 159.254,704.488 149.5,717.5C 156.3,732.069 156.966,746.736 151.5,761.5C 109.5,761.5 67.5,761.5 25.5,761.5C 20.2724,742.672 25.2724,726.839 40.5,714C 47.8982,708.135 56.2315,704.135 65.5,702C 77.8102,700.907 90.1436,700.407 102.5,700.5C 102.557,684.49 104.891,668.823 109.5,653.5C 97.1169,650.611 84.6169,649.945 72,651.5C 37.3531,649.842 14.6864,632.509 4,599.5C 2.15978,592.095 0.659779,584.761 -0.5,577.5C -0.5,572.833 -0.5,568.167 -0.5,563.5C 2.62241,529.087 18.2891,501.921 46.5,482C 59.9307,474.581 74.264,471.914 89.5,474C 98.1716,476.001 106.838,478.001 115.5,480C 119.872,482.909 123.705,486.409 127,490.5C 128.99,489.182 130.99,487.848 133,486.5C 135.732,474.768 142.899,467.268 154.5,464C 160.454,462.452 166.454,461.119 172.5,460C 130.3,461.818 103.8,442.318 93,401.5C 88.9168,383.165 90.0835,365.165 96.5,347.5C 89.1713,329.518 84.6713,310.852 83,291.5C 51.9334,236.15 46.9334,178.484 68,118.5C 85.6593,73.505 115.493,39.005 157.5,15C 168.136,9.51387 178.802,4.34721 189.5,-0.5 Z M 154.5,530.5 C 155.5,530.5 156.5,530.5 157.5,530.5C 157.662,532.527 157.495,534.527 157,536.5C 151.237,538.394 148.904,542.394 150,548.5C 149.221,543.5 148.888,538.5 149,533.5C 151.058,532.771 152.891,531.771 154.5,530.5 Z M 149.5,559.5 C 149.573,565.868 151.907,571.368 156.5,576C 153.599,580.968 151.099,586.135 149,591.5C 147.203,590.073 146.036,588.24 145.5,586C 148.081,577.35 149.414,568.517 149.5,559.5 Z"/></g>
<g><path style="opacity:0.999" fill="#f44747" d="M 223.5,44.5 C 222.883,44.3893 222.383,44.056 222,43.5C 218.137,33.5768 214.47,23.5768 211,13.5C 206.004,11.6214 200.838,11.1214 195.5,12C 198.731,26.0928 201.731,40.2594 204.5,54.5C 202.796,51.0615 201.462,47.3948 200.5,43.5C 197.642,34.0944 194.476,24.761 191,15.5C 190.481,14.4844 189.647,13.8178 188.5,13.5C 159.008,24.9007 133.674,42.234 112.5,65.5C 103.784,74.6136 95.7842,84.2802 88.5,94.5C 111.747,54.8519 144.747,26.3519 187.5,9C 195.892,7.39828 204.225,7.73162 212.5,10C 216.862,21.2533 220.529,32.7533 223.5,44.5 Z"/></g>
<g><path style="opacity:0.999" fill="#fc0000" d="M 223.5,44.5 C 230.966,68.6991 237.966,93.0325 244.5,117.5C 236.817,118.079 229.151,118.745 221.5,119.5C 220.149,112.097 218.483,104.764 216.5,97.5C 214.767,89.2195 212.434,81.2195 209.5,73.5C 208.44,66.9889 206.773,60.6556 204.5,54.5C 201.731,40.2594 198.731,26.0928 195.5,12C 200.838,11.1214 206.004,11.6214 211,13.5C 214.47,23.5768 218.137,33.5768 222,43.5C 222.383,44.056 222.883,44.3893 223.5,44.5 Z"/></g>
<g><path style="opacity:0.999" fill="#e20100" d="M 200.5,43.5 C 195.768,43.3776 191.102,43.8776 186.5,45C 161.714,51.5288 137.048,58.3622 112.5,65.5C 133.674,42.234 159.008,24.9007 188.5,13.5C 189.647,13.8178 190.481,14.4844 191,15.5C 194.476,24.761 197.642,34.0944 200.5,43.5 Z"/></g>
<g><path style="opacity:1" fill="#ce0000" d="M 200.5,43.5 C 201.462,47.3948 202.796,51.0615 204.5,54.5C 206.773,60.6556 208.44,66.9889 209.5,73.5C 208.04,71.5372 206.373,69.7038 204.5,68C 199.751,67.5175 195.084,68.0175 190.5,69.5C 187.782,69.3054 185.449,68.3054 183.5,66.5C 182.89,65.609 182.557,64.609 182.5,63.5C 181.928,62.0267 181.095,60.6934 180,59.5C 179.667,63.8333 179.333,68.1667 179,72.5C 178.612,73.428 177.945,74.0946 177,74.5C 168.96,77.2201 160.793,79.0534 152.5,80C 150,77.5 147.5,75 145,72.5C 144.622,76.6903 143.455,80.5236 141.5,84C 123.792,88.075 106.292,92.9084 89,98.5C 87.9701,98.1639 87.4701,97.4972 87.5,96.5C 87.3284,95.5084 87.6618,94.8417 88.5,94.5C 95.7842,84.2802 103.784,74.6136 112.5,65.5C 137.048,58.3622 161.714,51.5288 186.5,45C 191.102,43.8776 195.768,43.3776 200.5,43.5 Z"/></g>
<g><path style="opacity:0.998" fill="#b90000" d="M 183.5,66.5 C 185.449,68.3054 187.782,69.3054 190.5,69.5C 195.084,68.0175 199.751,67.5175 204.5,68C 206.373,69.7038 208.04,71.5372 209.5,73.5C 212.434,81.2195 214.767,89.2195 216.5,97.5C 214.704,96.2073 213.037,94.7073 211.5,93C 208.343,92.7602 205.176,92.9269 202,93.5C 198.976,93.5192 196.142,92.8525 193.5,91.5C 189.773,83.319 186.44,74.9857 183.5,66.5 Z"/></g>
<g><path style="opacity:1" fill="#620000" d="M 182.5,63.5 C 182.557,64.609 182.89,65.609 183.5,66.5C 186.44,74.9857 189.773,83.319 193.5,91.5C 197.391,102.169 202.058,112.502 207.5,122.5C 202.907,124.03 198.241,125.363 193.5,126.5C 191.787,114.434 189.62,102.434 187,90.5C 186.901,88.3474 186.067,86.6808 184.5,85.5C 183.449,79.3578 182.449,73.1912 181.5,67C 181.514,65.6153 181.848,64.4486 182.5,63.5 Z"/></g>
<g><path style="opacity:0.999" fill="#b60000" d="M 182.5,63.5 C 181.848,64.4486 181.514,65.6153 181.5,67C 182.449,73.1912 183.449,79.3578 184.5,85.5C 184.665,88.8499 184.498,92.1832 184,95.5C 178.838,99.325 173.005,101.325 166.5,101.5C 163.58,100.707 160.914,99.3735 158.5,97.5C 154.96,90.765 151.127,84.0984 147,77.5C 148.322,83.7921 149.822,90.1255 151.5,96.5C 151.824,100.555 151.491,104.555 150.5,108.5C 140.746,111.942 130.746,113.775 120.5,114C 117.72,112.188 115.22,110.021 113,107.5C 112.938,111.148 113.105,114.815 113.5,118.5C 102.978,121.464 92.3117,123.797 81.5,125.5C 79.8333,125.167 78.1667,124.833 76.5,124.5C 78.1298,121.724 78.7965,118.724 78.5,115.5C 80.1824,108.471 83.1824,102.138 87.5,96.5C 87.4701,97.4972 87.9701,98.1639 89,98.5C 106.292,92.9084 123.792,88.075 141.5,84C 143.455,80.5236 144.622,76.6903 145,72.5C 147.5,75 150,77.5 152.5,80C 160.793,79.0534 168.96,77.2201 177,74.5C 177.945,74.0946 178.612,73.428 179,72.5C 179.333,68.1667 179.667,63.8333 180,59.5C 181.095,60.6934 181.928,62.0267 182.5,63.5 Z"/></g>
<g><path style="opacity:0.999" fill="#620000" d="M 158.5,97.5 C 163.541,109.25 169.375,120.583 176,131.5C 176.671,132.252 177.504,132.586 178.5,132.5C 173.869,135.151 169.202,137.818 164.5,140.5C 160.937,125.491 156.604,110.824 151.5,96.5C 149.822,90.1255 148.322,83.7921 147,77.5C 151.127,84.0984 154.96,90.765 158.5,97.5 Z"/></g>
<g><path style="opacity:0.998" fill="#a00000" d="M 184.5,85.5 C 186.067,86.6808 186.901,88.3474 187,90.5C 189.62,102.434 191.787,114.434 193.5,126.5C 188.617,128.774 183.617,130.774 178.5,132.5C 177.504,132.586 176.671,132.252 176,131.5C 169.375,120.583 163.541,109.25 158.5,97.5C 160.914,99.3735 163.58,100.707 166.5,101.5C 173.005,101.325 178.838,99.325 184,95.5C 184.498,92.1832 184.665,88.8499 184.5,85.5 Z"/></g>
<g><path style="opacity:0.998" fill="#a00000" d="M 193.5,91.5 C 196.142,92.8525 198.976,93.5192 202,93.5C 205.176,92.9269 208.343,92.7602 211.5,93C 213.037,94.7073 214.704,96.2073 216.5,97.5C 218.483,104.764 220.149,112.097 221.5,119.5C 216.894,120.755 212.228,121.755 207.5,122.5C 202.058,112.502 197.391,102.169 193.5,91.5 Z"/></g>
<g><path style="opacity:1" fill="#9f0000" d="M 151.5,96.5 C 156.604,110.824 160.937,125.491 164.5,140.5C 158.228,144.108 152.228,148.108 146.5,152.5C 143.269,150.78 140.436,148.447 138,145.5C 131.666,134.172 124.333,123.505 116,113.5C 118.229,120.641 121.062,127.641 124.5,134.5C 124.007,136.806 123.674,139.139 123.5,141.5C 105.986,145.07 88.6524,149.403 71.5,154.5C 69.8552,150.68 69.1885,146.68 69.5,142.5C 70.7294,132.812 73.7294,123.812 78.5,115.5C 78.7965,118.724 78.1298,121.724 76.5,124.5C 78.1667,124.833 79.8333,125.167 81.5,125.5C 92.3117,123.797 102.978,121.464 113.5,118.5C 113.105,114.815 112.938,111.148 113,107.5C 115.22,110.021 117.72,112.188 120.5,114C 130.746,113.775 140.746,111.942 150.5,108.5C 151.491,104.555 151.824,100.555 151.5,96.5 Z"/></g>
<g><path style="opacity:0.999" fill="#630000" d="M 146.5,152.5 C 143.48,155.516 140.146,158.183 136.5,160.5C 133.016,151.536 129.016,142.869 124.5,134.5C 121.062,127.641 118.229,120.641 116,113.5C 124.333,123.505 131.666,134.172 138,145.5C 140.436,148.447 143.269,150.78 146.5,152.5 Z"/></g>
<g><path style="opacity:1" fill="#f4f6f7" d="M 408.5,155.5 C 408.103,156.525 407.437,156.692 406.5,156C 388.123,142.478 367.79,133.311 345.5,128.5C 352.136,170.043 361.136,211.043 372.5,251.5C 374.5,251.833 376.5,252.167 378.5,252.5C 392.55,255.51 405.55,260.844 417.5,268.5C 402.688,261.047 387.021,257.213 370.5,257C 324.926,273.447 282.926,296.114 244.5,325C 231.003,335.667 217.669,346.501 204.5,357.5C 204.062,357.565 203.728,357.399 203.5,357C 216.743,344.584 230.41,332.75 244.5,321.5C 257.167,312.5 269.833,303.5 282.5,294.5C 303.477,282.677 324.477,270.843 345.5,259C 345.957,258.586 346.291,258.086 346.5,257.5C 344.223,256.579 341.89,255.913 339.5,255.5C 341.412,253.343 343.079,251.009 344.5,248.5C 348.602,242.356 349.435,235.689 347,228.5C 337.39,204.338 327.39,180.338 317,156.5C 306.746,146.922 296.746,147.255 287,157.5C 284.713,160.072 283.547,163.072 283.5,166.5C 281.904,168.832 280.738,171.499 280,174.5C 275.663,170.48 271.33,166.48 267,162.5C 257.653,166.423 248.82,171.256 240.5,177C 239.251,177.74 238.251,177.573 237.5,176.5C 267.373,151.883 300.706,132.883 337.5,119.5C 358.605,124.808 378.272,133.308 396.5,145C 400.759,148.282 404.759,151.782 408.5,155.5 Z"/></g>
<g><path style="opacity:1" fill="#fcfcfc" d="M 202.5,200.5 C 196.392,198.223 192.559,193.89 191,187.5C 190.811,182.749 190.145,178.083 189,173.5C 182.5,168.002 179.167,161.002 179,152.5C 178.612,151.572 177.945,150.905 177,150.5C 165.243,155.047 153.909,160.38 143,166.5C 142.235,166.43 141.735,166.097 141.5,165.5C 165.801,143.187 194.468,129.687 227.5,125C 244.5,124.333 261.5,124.333 278.5,125C 285.377,125.309 292.043,126.642 298.5,129C 262.083,146.919 230.083,170.752 202.5,200.5 Z"/></g>
<g><path style="opacity:1" fill="#e1e6e7" d="M 408.5,155.5 C 411.192,157.862 413.859,160.196 416.5,162.5C 416.53,163.497 416.03,164.164 415,164.5C 411.621,163.239 408.288,163.239 405,164.5C 403.223,162.21 401.056,160.543 398.5,159.5C 393.695,152.605 387.029,149.771 378.5,151C 374.043,153.079 372.043,156.579 372.5,161.5C 374.834,175.501 377.167,189.501 379.5,203.5C 379.338,212.821 376.838,221.488 372,229.5C 370.033,238.422 372.2,246.089 378.5,252.5C 376.5,252.167 374.5,251.833 372.5,251.5C 361.136,211.043 352.136,170.043 345.5,128.5C 367.79,133.311 388.123,142.478 406.5,156C 407.437,156.692 408.103,156.525 408.5,155.5 Z"/></g>
<g><path style="opacity:0.999" fill="#8b0000" d="M 124.5,134.5 C 129.016,142.869 133.016,151.536 136.5,160.5C 131.389,166.399 126.056,172.066 120.5,177.5C 111.034,172.216 102.534,165.55 95,157.5C 94.6155,159.197 94.7822,160.863 95.5,162.5C 95.4332,164.401 95.7665,166.234 96.5,168C 87.1637,172.667 77.1637,175.167 66.5,175.5C 66.5,168.833 66.5,162.167 66.5,155.5C 66.4249,150.808 67.4249,146.474 69.5,142.5C 69.1885,146.68 69.8552,150.68 71.5,154.5C 88.6524,149.403 105.986,145.07 123.5,141.5C 123.674,139.139 124.007,136.806 124.5,134.5 Z"/></g>
<g><path style="opacity:0.999" fill="#e9edee" d="M 202.5,200.5 C 192.731,211.934 183.731,223.934 175.5,236.5C 171.095,237.992 166.762,237.825 162.5,236C 145.699,226.202 133.533,212.369 126,194.5C 125.221,189.682 125.721,185.015 127.5,180.5C 131.461,174.871 136.127,169.871 141.5,165.5C 141.735,166.097 142.235,166.43 143,166.5C 153.909,160.38 165.243,155.047 177,150.5C 177.945,150.905 178.612,151.572 179,152.5C 179.167,161.002 182.5,168.002 189,173.5C 190.145,178.083 190.811,182.749 191,187.5C 192.559,193.89 196.392,198.223 202.5,200.5 Z"/></g>
<g><path style="opacity:1" fill="#a1b1b4" d="M 344.5,248.5 C 344.395,244.681 343.562,241.014 342,237.5C 332.39,213.338 322.39,189.338 312,165.5C 307.382,159.947 301.549,158.114 294.5,160C 290.476,161.674 286.809,163.841 283.5,166.5C 283.547,163.072 284.713,160.072 287,157.5C 296.746,147.255 306.746,146.922 317,156.5C 327.39,180.338 337.39,204.338 347,228.5C 349.435,235.689 348.602,242.356 344.5,248.5 Z"/></g>
<g><path style="opacity:1" fill="#a0b0b4" d="M 398.5,159.5 C 400.26,162.689 401.76,166.022 403,169.5C 407.167,192.167 411.334,214.834 415.5,237.5C 415.547,243.786 412.547,247.786 406.5,249.5C 402.451,225.087 397.951,200.754 393,176.5C 389.339,166.987 382.506,161.987 372.5,161.5C 372.043,156.579 374.043,153.079 378.5,151C 387.029,149.771 393.695,152.605 398.5,159.5 Z"/></g>
<g><path style="opacity:0.999" fill="#6b0000" d="M 120.5,177.5 C 113.759,186.635 107.759,196.302 102.5,206.5C 96.8771,206.951 91.5437,205.951 86.5,203.5C 86.4764,206.309 86.1431,209.143 85.5,212C 78.8801,213.822 72.2134,215.322 65.5,216.5C 63.982,208.584 63.3153,200.584 63.5,192.5C 64.6924,194.878 66.359,196.878 68.5,198.5C 81.7246,195.777 94.7246,192.277 107.5,188C 109.698,186.122 109.864,183.955 108,181.5C 104.363,174.72 100.197,168.387 95.5,162.5C 94.7822,160.863 94.6155,159.197 95,157.5C 102.534,165.55 111.034,172.216 120.5,177.5 Z"/></g>
<g><path style="opacity:1" fill="#020202" d="M 344.5,248.5 C 343.079,251.009 341.412,253.343 339.5,255.5C 336.763,256.031 334.096,256.864 331.5,258C 323.698,259.515 317.532,257.015 313,250.5C 303.667,227.833 294.333,205.167 285,182.5C 283.729,177.246 283.229,171.913 283.5,166.5C 286.809,163.841 290.476,161.674 294.5,160C 301.549,158.114 307.382,159.947 312,165.5C 322.39,189.338 332.39,213.338 342,237.5C 343.562,241.014 344.395,244.681 344.5,248.5 Z"/></g>
<g><path style="opacity:0.998" fill="#d3dadb" d="M 398.5,159.5 C 401.056,160.543 403.223,162.21 405,164.5C 408.288,163.239 411.621,163.239 415,164.5C 416.03,164.164 416.53,163.497 416.5,162.5C 428.754,175.661 437.421,190.994 442.5,208.5C 442.666,216.84 442.5,225.173 442,233.5C 441.722,232.584 441.222,231.918 440.5,231.5C 440.289,222.895 438.789,214.562 436,206.5C 433.267,202.885 429.767,201.052 425.5,201C 423.667,201.5 422.5,202.667 422,204.5C 421.199,207.367 421.366,210.034 422.5,212.5C 423.657,218.428 424.324,224.428 424.5,230.5C 424.793,239.512 424.96,248.512 425,257.5C 423.833,260.333 422.667,263.167 421.5,266C 426.987,272.155 432.487,278.322 438,284.5C 438.528,285.816 438.028,286.483 436.5,286.5C 435.833,286.5 435.5,286.167 435.5,285.5C 430.104,279.102 424.104,273.435 417.5,268.5C 405.55,260.844 392.55,255.51 378.5,252.5C 372.2,246.089 370.033,238.422 372,229.5C 376.838,221.488 379.338,212.821 379.5,203.5C 381.744,215.196 384.577,226.862 388,238.5C 392.309,245.312 398.476,248.979 406.5,249.5C 412.547,247.786 415.547,243.786 415.5,237.5C 411.334,214.834 407.167,192.167 403,169.5C 401.76,166.022 400.26,162.689 398.5,159.5 Z"/></g>
<g><path style="opacity:0.999" fill="#050505" d="M 372.5,161.5 C 382.506,161.987 389.339,166.987 393,176.5C 397.951,200.754 402.451,225.087 406.5,249.5C 398.476,248.979 392.309,245.312 388,238.5C 384.577,226.862 381.744,215.196 379.5,203.5C 377.167,189.501 374.834,175.501 372.5,161.5 Z"/></g>
<g><path style="opacity:1" fill="#e6eaeb" d="M 283.5,166.5 C 283.229,171.913 283.729,177.246 285,182.5C 294.333,205.167 303.667,227.833 313,250.5C 317.532,257.015 323.698,259.515 331.5,258C 334.096,256.864 336.763,256.031 339.5,255.5C 341.89,255.913 344.223,256.579 346.5,257.5C 346.291,258.086 345.957,258.586 345.5,259C 324.477,270.843 303.477,282.677 282.5,294.5C 284.894,292.109 286.894,289.443 288.5,286.5C 286.934,282.307 286.268,277.974 286.5,273.5C 286.666,269.486 286.499,265.486 286,261.5C 277.529,240.419 268.862,219.419 260,198.5C 256.014,192.42 250.514,190.086 243.5,191.5C 236.001,193.328 231.001,197.994 228.5,205.5C 227.504,205.414 226.671,205.748 226,206.5C 223.052,204.225 220.886,201.391 219.5,198C 220.725,195.054 222.058,192.22 223.5,189.5C 227.539,184.46 232.206,180.127 237.5,176.5C 238.251,177.573 239.251,177.74 240.5,177C 248.82,171.256 257.653,166.423 267,162.5C 271.33,166.48 275.663,170.48 280,174.5C 280.738,171.499 281.904,168.832 283.5,166.5 Z"/></g>
<g><path style="opacity:0.996" fill="#7b0000" d="M 66.5,155.5 C 66.5,162.167 66.5,168.833 66.5,175.5C 77.1637,175.167 87.1637,172.667 96.5,168C 95.7665,166.234 95.4332,164.401 95.5,162.5C 100.197,168.387 104.363,174.72 108,181.5C 109.864,183.955 109.698,186.122 107.5,188C 94.7246,192.277 81.7246,195.777 68.5,198.5C 66.359,196.878 64.6924,194.878 63.5,192.5C 62.9123,179.887 63.9123,167.554 66.5,155.5 Z"/></g>
<g><path style="opacity:0.999" fill="#dce0e2" d="M 127.5,180.5 C 125.721,185.015 125.221,189.682 126,194.5C 133.533,212.369 145.699,226.202 162.5,236C 166.762,237.825 171.095,237.992 175.5,236.5C 168.959,247.583 162.959,258.916 157.5,270.5C 154.482,270.665 151.482,270.498 148.5,270C 131.712,261.855 116.545,251.355 103,238.5C 100.713,235.928 99.5465,232.928 99.5,229.5C 105.503,211.149 114.836,194.815 127.5,180.5 Z"/></g>
<g><path style="opacity:1" fill="#030303" d="M 286.5,273.5 C 284.214,278.72 280.547,282.72 275.5,285.5C 269.84,285.42 265.34,283.087 262,278.5C 253.39,258.281 245.057,237.947 237,217.5C 233.393,207.272 235.559,198.605 243.5,191.5C 250.514,190.086 256.014,192.42 260,198.5C 268.862,219.419 277.529,240.419 286,261.5C 286.499,265.486 286.666,269.486 286.5,273.5 Z"/></g>
<g><path style="opacity:0.999" fill="#d9dfe0" d="M 223.5,189.5 C 222.058,192.22 220.725,195.054 219.5,198C 220.886,201.391 223.052,204.225 226,206.5C 226.671,205.748 227.504,205.414 228.5,205.5C 228.305,209.915 228.805,214.249 230,218.5C 238.667,239.167 247.333,259.833 256,280.5C 257.833,282.333 259.667,284.167 261.5,286C 266.352,286.815 271.019,286.648 275.5,285.5C 280.547,282.72 284.214,278.72 286.5,273.5C 286.268,277.974 286.934,282.307 288.5,286.5C 286.894,289.443 284.894,292.109 282.5,294.5C 269.833,303.5 257.167,312.5 244.5,321.5C 245.737,318.838 246.571,316.171 247,313.5C 244.189,308.866 240.689,304.866 236.5,301.5C 229.299,283.07 221.799,264.737 214,246.5C 210.726,241.903 206.226,239.903 200.5,240.5C 198.708,240.366 197.042,240.699 195.5,241.5C 192.873,242.092 190.206,242.425 187.5,242.5C 187.5,238.833 187.5,235.167 187.5,231.5C 197.716,215.952 209.716,201.952 223.5,189.5 Z"/></g>
<g><path style="opacity:1" fill="#9eadb1" d="M 243.5,191.5 C 235.559,198.605 233.393,207.272 237,217.5C 245.057,237.947 253.39,258.281 262,278.5C 265.34,283.087 269.84,285.42 275.5,285.5C 271.019,286.648 266.352,286.815 261.5,286C 259.667,284.167 257.833,282.333 256,280.5C 247.333,259.833 238.667,239.167 230,218.5C 228.805,214.249 228.305,209.915 228.5,205.5C 231.001,197.994 236.001,193.328 243.5,191.5 Z"/></g>
<g><path style="opacity:1" fill="#a1b0b3" d="M 440.5,231.5 C 442.33,244.46 443.496,257.46 444,270.5C 441.974,273.4 439.474,274.067 436.5,272.5C 437.794,270.952 438.461,268.952 438.5,266.5C 436.743,250.111 434.576,233.778 432,217.5C 430.763,212.596 427.763,209.262 423,207.5C 422.506,209.134 422.34,210.801 422.5,212.5C 421.366,210.034 421.199,207.367 422,204.5C 422.5,202.667 423.667,201.5 425.5,201C 429.767,201.052 433.267,202.885 436,206.5C 438.789,214.562 440.289,222.895 440.5,231.5 Z"/></g>
<g><path style="opacity:0.998" fill="#5e0000" d="M 102.5,206.5 C 92.0093,227.599 85.676,249.932 83.5,273.5C 73.8921,255.675 67.8921,236.675 65.5,216.5C 72.2134,215.322 78.8801,213.822 85.5,212C 86.1431,209.143 86.4764,206.309 86.5,203.5C 91.5437,205.951 96.8771,206.951 102.5,206.5 Z"/></g>
<g><path style="opacity:0.999" fill="#090a0a" d="M 436.5,272.5 C 433.365,270.24 431.198,267.24 430,263.5C 428.89,252.238 427.056,241.238 424.5,230.5C 424.324,224.428 423.657,218.428 422.5,212.5C 422.34,210.801 422.506,209.134 423,207.5C 427.763,209.262 430.763,212.596 432,217.5C 434.576,233.778 436.743,250.111 438.5,266.5C 438.461,268.952 437.794,270.952 436.5,272.5 Z"/></g>
<g><path style="opacity:0.999" fill="#c5ced0" d="M 442.5,208.5 C 450.462,229.652 454.462,251.652 454.5,274.5C 454.826,282.684 454.492,290.684 453.5,298.5C 447.81,294.468 442.143,290.468 436.5,286.5C 438.028,286.483 438.528,285.816 438,284.5C 432.487,278.322 426.987,272.155 421.5,266C 422.667,263.167 423.833,260.333 425,257.5C 424.96,248.512 424.793,239.512 424.5,230.5C 427.056,241.238 428.89,252.238 430,263.5C 431.198,267.24 433.365,270.24 436.5,272.5C 439.474,274.067 441.974,273.4 444,270.5C 443.496,257.46 442.33,244.46 440.5,231.5C 441.222,231.918 441.722,232.584 442,233.5C 442.5,225.173 442.666,216.84 442.5,208.5 Z"/></g>
<g><path style="opacity:0.999" fill="#030303" d="M 200.5,240.5 C 206.226,239.903 210.726,241.903 214,246.5C 221.799,264.737 229.299,283.07 236.5,301.5C 236.768,308.627 234.102,314.293 228.5,318.5C 224.314,318.247 220.814,316.581 218,313.5C 210.114,295.727 202.78,277.727 196,259.5C 194.383,252.362 195.883,246.029 200.5,240.5 Z"/></g>
<g><path style="opacity:1" fill="#9fadb1" d="M 200.5,240.5 C 195.883,246.029 194.383,252.362 196,259.5C 202.78,277.727 210.114,295.727 218,313.5C 220.814,316.581 224.314,318.247 228.5,318.5C 221.811,323.191 215.978,322.191 211,315.5C 203.108,297.717 195.774,279.717 189,261.5C 186.903,253.378 189.07,246.712 195.5,241.5C 197.042,240.699 198.708,240.366 200.5,240.5 Z"/></g>
<g><path style="opacity:1" fill="#a0afb3" d="M 417.5,268.5 C 424.104,273.435 430.104,279.102 435.5,285.5C 424.307,280.071 412.974,274.905 401.5,270C 391.097,266.384 380.43,264.718 369.5,265C 320.43,282.024 276.097,307.024 236.5,340C 224.534,350.298 212.867,360.965 201.5,372C 200.668,372.688 200.002,372.521 199.5,371.5C 198.801,368.69 197.801,366.023 196.5,363.5C 199.868,362.478 202.535,360.478 204.5,357.5C 217.669,346.501 231.003,335.667 244.5,325C 282.926,296.114 324.926,273.447 370.5,257C 387.021,257.213 402.688,261.047 417.5,268.5 Z"/></g>
<g><path style="opacity:0.999" fill="#cbd3d5" d="M 99.5,229.5 C 99.5465,232.928 100.713,235.928 103,238.5C 116.545,251.355 131.712,261.855 148.5,270C 151.482,270.498 154.482,270.665 157.5,270.5C 151.217,285.683 146.55,301.35 143.5,317.5C 135.867,317.242 128.533,318.576 121.5,321.5C 110.119,309.104 100.952,295.104 94,279.5C 93.0259,275.175 92.1925,270.842 91.5,266.5C 91.8266,253.542 94.4932,241.209 99.5,229.5 Z"/></g>
<g><path style="opacity:0.999" fill="#aebbbe" d="M 91.5,266.5 C 92.1925,270.842 93.0259,275.175 94,279.5C 100.952,295.104 110.119,309.104 121.5,321.5C 114.596,326.898 108.096,332.898 102,339.5C 91.7552,316.043 88.2552,291.71 91.5,266.5 Z"/></g>
<g><path style="opacity:0.998" fill="#cad2d4" d="M 187.5,231.5 C 187.5,235.167 187.5,238.833 187.5,242.5C 190.206,242.425 192.873,242.092 195.5,241.5C 189.07,246.712 186.903,253.378 189,261.5C 195.774,279.717 203.108,297.717 211,315.5C 215.978,322.191 221.811,323.191 228.5,318.5C 234.102,314.293 236.768,308.627 236.5,301.5C 240.689,304.866 244.189,308.866 247,313.5C 246.571,316.171 245.737,318.838 244.5,321.5C 230.41,332.75 216.743,344.584 203.5,357C 203.728,357.399 204.062,357.565 204.5,357.5C 202.535,360.478 199.868,362.478 196.5,363.5C 190.974,345.953 180.307,332.453 164.5,323C 160.1,320.632 155.434,319.132 150.5,318.5C 155.206,295.414 163.039,273.414 174,252.5C 178.026,245.095 182.526,238.095 187.5,231.5 Z"/></g>
<g><path style="opacity:1" fill="#f89d00" d="M 417.5,284.5 C 407.437,284.421 397.437,285.087 387.5,286.5C 370.146,287.67 353.146,290.67 336.5,295.5C 323.052,298.761 309.718,302.427 296.5,306.5C 317.27,292.623 339.936,282.79 364.5,277C 383.198,273.231 400.864,275.731 417.5,284.5 Z"/></g>
<g><path style="opacity:1" fill="#fefe00" d="M 417.5,284.5 C 423.65,286.74 429.316,289.74 434.5,293.5C 434.657,294.873 434.49,296.207 434,297.5C 429,301.5 424,305.5 419,309.5C 419.124,314.861 419.457,320.194 420,325.5C 418.911,329.186 416.745,332.019 413.5,334C 407.92,335.517 402.253,335.851 396.5,335C 391.034,332.265 385.367,330.099 379.5,328.5C 366.443,332.014 353.443,335.68 340.5,339.5C 332.139,334.899 323.972,329.899 316,324.5C 317.055,330.825 319.221,336.825 322.5,342.5C 322.5,343.5 322.5,344.5 322.5,345.5C 303.453,350.509 284.12,353.843 264.5,355.5C 261.013,354.255 258.013,352.255 255.5,349.5C 254.811,348.226 253.977,348.226 253,349.5C 252.548,352.149 251.714,354.649 250.5,357C 245.98,357.814 241.646,357.647 237.5,356.5C 247.5,346.167 257.5,335.833 267.5,325.5C 271.001,321.338 275.335,318.338 280.5,316.5C 287.198,315.686 293.864,314.686 300.5,313.5C 322.89,309.981 344.224,303.148 364.5,293C 372.418,291.274 380.085,289.108 387.5,286.5C 397.437,285.087 407.437,284.421 417.5,284.5 Z"/></g>
<g><path style="opacity:0.898" fill="#6c7172" d="M 454.5,274.5 C 455.821,282.676 455.821,291.009 454.5,299.5C 453.893,299.376 453.56,299.043 453.5,298.5C 454.492,290.684 454.826,282.684 454.5,274.5 Z"/></g>
<g><path style="opacity:0.995" fill="#ffe400" d="M 387.5,286.5 C 380.085,289.108 372.418,291.274 364.5,293C 344.224,303.148 322.89,309.981 300.5,313.5C 305.028,311.596 309.694,309.763 314.5,308C 321.441,303.033 328.774,298.866 336.5,295.5C 353.146,290.67 370.146,287.67 387.5,286.5 Z"/></g>
<g><path style="opacity:0.999" fill="#fee600" d="M 434.5,293.5 C 447.425,302.096 459.758,311.43 471.5,321.5C 471.5,322.5 471.5,323.5 471.5,324.5C 457.214,321.343 443.214,317.51 429.5,313C 436.063,319.395 442.397,325.895 448.5,332.5C 450.957,335.751 452.624,339.418 453.5,343.5C 453.455,347.346 452.622,351.013 451,354.5C 442.548,363.216 432.215,366.882 420,365.5C 402.98,364.717 387.147,359.884 372.5,351C 367.442,346.943 362.108,343.276 356.5,340C 351.499,339.749 346.499,339.916 341.5,340.5C 340.833,340.5 340.5,340.167 340.5,339.5C 353.443,335.68 366.443,332.014 379.5,328.5C 385.367,330.099 391.034,332.265 396.5,335C 402.253,335.851 407.92,335.517 413.5,334C 416.745,332.019 418.911,329.186 420,325.5C 419.457,320.194 419.124,314.861 419,309.5C 424,305.5 429,301.5 434,297.5C 434.49,296.207 434.657,294.873 434.5,293.5 Z"/></g>
<g><path style="opacity:0.993" fill="#fcce00" d="M 336.5,295.5 C 328.774,298.866 321.441,303.033 314.5,308C 309.694,309.763 305.028,311.596 300.5,313.5C 293.864,314.686 287.198,315.686 280.5,316.5C 285.124,312.18 290.457,308.846 296.5,306.5C 309.718,302.427 323.052,298.761 336.5,295.5 Z"/></g>
<g><path style="opacity:0.998" fill="#faa000" d="M 471.5,321.5 C 473.63,323.127 475.63,324.96 477.5,327C 467.982,329.24 458.315,330.073 448.5,329.5C 448.5,330.5 448.5,331.5 448.5,332.5C 442.397,325.895 436.063,319.395 429.5,313C 443.214,317.51 457.214,321.343 471.5,324.5C 471.5,323.5 471.5,322.5 471.5,321.5 Z"/></g>
<g><path style="opacity:1" fill="#e9eced" d="M 156.5,326.5 C 165.138,342.354 168.805,359.354 167.5,377.5C 163.335,381.497 159.002,385.33 154.5,389C 151.007,390.791 147.341,392.124 143.5,393C 136.167,393.667 128.833,393.667 121.5,393C 119.292,392.809 117.292,392.309 115.5,391.5C 124.518,390.908 132.018,387.241 138,380.5C 140.422,376.656 143.089,372.99 146,369.5C 151.755,358.397 151.422,347.397 145,336.5C 139.335,330.022 132.168,327.689 123.5,329.5C 126.16,327.503 129.16,326.003 132.5,325C 140.623,324.062 148.623,324.562 156.5,326.5 Z"/></g>
<g><path style="opacity:1" fill="#f99d00" d="M 340.5,339.5 C 340.5,340.167 340.833,340.5 341.5,340.5C 357.727,351.45 375.06,360.617 393.5,368C 413.857,376.504 434.857,382.671 456.5,386.5C 457.828,377.877 458.828,369.21 459.5,360.5C 463.066,372.778 465.066,385.444 465.5,398.5C 416.747,392.232 371.081,376.898 328.5,352.5C 327.571,353.689 327.238,355.022 327.5,356.5C 326.236,351.708 324.569,347.042 322.5,342.5C 319.221,336.825 317.055,330.825 316,324.5C 323.972,329.899 332.139,334.899 340.5,339.5 Z"/></g>
<g><path style="opacity:1" fill="#afbcbf" d="M 156.5,326.5 C 173.327,335.101 184.827,348.434 191,366.5C 198.486,389.066 196.486,410.733 185,431.5C 170.934,450.715 153.1,455.215 131.5,445C 123.622,439.956 117.288,433.456 112.5,425.5C 135.406,430.463 151.906,422.463 162,401.5C 165.728,393.922 167.562,385.922 167.5,377.5C 168.805,359.354 165.138,342.354 156.5,326.5 Z"/></g>
<g><path style="opacity:0.998" fill="#fefefe" d="M 123.5,329.5 C 132.168,327.689 139.335,330.022 145,336.5C 151.422,347.397 151.755,358.397 146,369.5C 143.089,372.99 140.422,376.656 138,380.5C 132.018,387.241 124.518,390.908 115.5,391.5C 112.737,391.256 110.571,389.923 109,387.5C 106.806,384.446 105.139,381.112 104,377.5C 103.295,369.139 103.462,360.806 104.5,352.5C 108.253,342.638 114.586,334.971 123.5,329.5 Z"/></g>
<g><path style="opacity:0.999" fill="#f69d00" d="M 267.5,325.5 C 257.5,335.833 247.5,346.167 237.5,356.5C 232.323,359.871 229.49,364.538 229,370.5C 234.844,375.667 241.344,379.667 248.5,382.5C 236.816,383.413 226.15,380.579 216.5,374C 215.101,372.938 214.101,371.605 213.5,370C 229.876,353.117 247.876,338.283 267.5,325.5 Z"/></g>
<g><path style="opacity:0.995" fill="#feda00" d="M 453.5,343.5 C 456.668,348.667 458.668,354.334 459.5,360.5C 458.828,369.21 457.828,377.877 456.5,386.5C 434.857,382.671 413.857,376.504 393.5,368C 375.06,360.617 357.727,351.45 341.5,340.5C 346.499,339.916 351.499,339.749 356.5,340C 362.108,343.276 367.442,346.943 372.5,351C 387.147,359.884 402.98,364.717 420,365.5C 432.215,366.882 442.548,363.216 451,354.5C 452.622,351.013 453.455,347.346 453.5,343.5 Z"/></g>
<g><path style="opacity:1" fill="#fdcb00" d="M 322.5,342.5 C 324.569,347.042 326.236,351.708 327.5,356.5C 329.55,364.75 331.217,373.084 332.5,381.5C 332.5,382.5 332.5,383.5 332.5,384.5C 330.167,384.5 327.833,384.5 325.5,384.5C 322.615,384.806 319.948,384.473 317.5,383.5C 319.527,383.662 321.527,383.495 323.5,383C 310.187,378.785 297.187,373.785 284.5,368C 277.264,364.559 270.598,360.393 264.5,355.5C 284.12,353.843 303.453,350.509 322.5,345.5C 322.5,344.5 322.5,343.5 322.5,342.5 Z"/></g>
<g><path style="opacity:0.998" fill="#f89d00" d="M 255.5,349.5 C 258.013,352.255 261.013,354.255 264.5,355.5C 270.598,360.393 277.264,364.559 284.5,368C 297.187,373.785 310.187,378.785 323.5,383C 321.527,383.495 319.527,383.662 317.5,383.5C 293.632,382.547 272.298,374.88 253.5,360.5C 252.621,356.56 253.288,352.894 255.5,349.5 Z"/></g>
<g><path style="opacity:0.998" fill="#fcc900" d="M 255.5,349.5 C 253.288,352.894 252.621,356.56 253.5,360.5C 254.227,368.192 254.227,375.859 253.5,383.5C 251.929,382.691 250.262,382.357 248.5,382.5C 241.344,379.667 234.844,375.667 229,370.5C 229.49,364.538 232.323,359.871 237.5,356.5C 241.646,357.647 245.98,357.814 250.5,357C 251.714,354.649 252.548,352.149 253,349.5C 253.977,348.226 254.811,348.226 255.5,349.5 Z"/></g>
<g><path style="opacity:0.997" fill="#d7dedf" d="M 104.5,352.5 C 103.462,360.806 103.295,369.139 104,377.5C 105.139,381.112 106.806,384.446 109,387.5C 110.571,389.923 112.737,391.256 115.5,391.5C 117.292,392.309 119.292,392.809 121.5,393C 128.833,393.667 136.167,393.667 143.5,393C 147.341,392.124 151.007,390.791 154.5,389C 159.002,385.33 163.335,381.497 167.5,377.5C 167.562,385.922 165.728,393.922 162,401.5C 151.906,422.463 135.406,430.463 112.5,425.5C 104.966,414.41 100.466,402.076 99,388.5C 97.4516,375.828 99.2849,363.828 104.5,352.5 Z"/></g>
<g><path style="opacity:1" fill="#feecc2" d="M 368.5,379.5 C 366.2,389.045 365.867,398.712 367.5,408.5C 368.55,413.114 368.717,417.78 368,422.5C 352.971,431.09 336.805,434.257 319.5,432C 310.215,430.098 301.215,427.431 292.5,424C 291.978,423.439 291.645,422.772 291.5,422C 292.75,418.734 294.084,415.568 295.5,412.5C 299.128,405.279 301.128,397.612 301.5,389.5C 302.833,389.5 304.167,389.5 305.5,389.5C 316.464,390.866 327.464,391.866 338.5,392.5C 338.198,384.308 337.531,376.142 336.5,368C 336.833,366.5 337.167,365 337.5,363.5C 347.421,369.627 357.754,374.961 368.5,379.5 Z"/></g>
<g><path style="opacity:0.868" fill="#090909" d="M 537.5,410.5 C 537.5,412.167 537.5,413.833 537.5,415.5C 504.484,465.68 471.817,516.18 439.5,567C 443.412,571.077 446.745,575.577 449.5,580.5C 442.054,581.171 434.887,579.837 428,576.5C 429.406,583.693 429.74,591.026 429,598.5C 427.92,600.996 426.586,603.33 425,605.5C 425.286,616.949 420.119,624.616 409.5,628.5C 404.042,640.431 395.708,643.098 384.5,636.5C 384.5,635.833 384.167,635.5 383.5,635.5C 380.065,631.562 376.398,627.729 372.5,624C 369.635,623.817 366.969,623.317 364.5,622.5C 365.946,620.296 366.78,617.963 367,615.5C 364.749,613.623 362.249,612.123 359.5,611C 356.8,609.143 355.134,606.643 354.5,603.5C 358.786,607.897 363.952,610.897 370,612.5C 374.124,608.941 377.291,604.607 379.5,599.5C 382.267,595.483 384.934,591.316 387.5,587C 385.361,584.522 383.361,582.022 381.5,579.5C 381.123,577.742 380.456,576.075 379.5,574.5C 381.721,570.459 382.888,566.126 383,561.5C 383.792,558.894 385.292,556.894 387.5,555.5C 388.043,555.56 388.376,555.893 388.5,556.5C 384.156,563.214 382.656,570.548 384,578.5C 385.48,581.817 387.98,583.817 391.5,584.5C 393.167,585.167 394.833,585.833 396.5,586.5C 391.88,587.75 390.547,590.417 392.5,594.5C 394.167,599.692 397.834,602.525 403.5,603C 423.691,608.472 430.858,600.972 425,580.5C 423.615,577.614 421.449,575.614 418.5,574.5C 416.99,572.683 415.657,570.683 414.5,568.5C 414.624,567.893 414.957,567.56 415.5,567.5C 422.397,571.278 429.73,573.944 437.5,575.5C 438.675,575.719 439.675,575.386 440.5,574.5C 438.116,571.131 435.783,567.797 433.5,564.5C 434.5,564.167 435.167,563.5 435.5,562.5C 467.323,513.528 499.156,464.528 531,415.5C 531.416,402.991 530.249,390.657 527.5,378.5C 518.276,382.278 508.943,385.778 499.5,389C 497.413,389.792 495.579,390.959 494,392.5C 464.225,442.39 434.725,492.39 405.5,542.5C 404.833,542.5 404.5,542.833 404.5,543.5C 402.102,543.741 400.102,543.074 398.5,541.5C 429.574,490.36 460.407,439.027 491,387.5C 504.836,381.277 519.003,375.944 533.5,371.5C 534.253,384.702 535.586,397.702 537.5,410.5 Z"/></g>
<g><path style="opacity:1" fill="#f7f9f8" d="M 268.5,377.5 C 267.167,377.5 265.833,377.5 264.5,377.5C 265.051,380.807 265.384,384.14 265.5,387.5C 264.777,393.221 261.777,397.221 256.5,399.5C 252.5,399.5 248.5,399.5 244.5,399.5C 247.229,412.379 255.229,418.212 268.5,417C 269.173,414.141 270.007,411.308 271,408.5C 271.725,407.941 272.558,407.608 273.5,407.5C 275.853,408.351 278.187,408.851 280.5,409C 286.395,399.095 285.395,389.928 277.5,381.5C 289.355,384.107 293.522,391.441 290,403.5C 283.507,423.332 270.007,431.165 249.5,427C 231.196,418.923 225.196,405.756 231.5,387.5C 241.398,389.33 251.398,389.996 261.5,389.5C 260.563,384.146 260.563,378.812 261.5,373.5C 264.059,374.608 266.392,375.941 268.5,377.5 Z"/></g>
<g><path style="opacity:1" fill="#f9e2ac" d="M 215.5,380.5 C 215.09,391.972 217.09,402.972 221.5,413.5C 213.383,407.599 206.883,400.266 202,391.5C 201.207,387.577 201.374,383.744 202.5,380C 204.641,378.692 206.641,377.192 208.5,375.5C 211.13,376.804 213.463,378.47 215.5,380.5 Z"/></g>
<g><path style="opacity:0.999" fill="#eef0f1" d="M 435.5,562.5 C 434.833,562.167 434.167,561.833 433.5,561.5C 433.351,560.448 433.517,559.448 434,558.5C 450,533.833 466,509.167 482,484.5C 482.635,482.365 482.301,480.365 481,478.5C 477.667,482.5 474.333,486.5 471,490.5C 470.333,489.833 470.333,489.167 471,488.5C 484.921,465.653 499.587,443.32 515,421.5C 518.159,413.919 518.326,406.252 515.5,398.5C 506.843,399.572 500.01,403.572 495,410.5C 486.059,426.062 476.892,441.396 467.5,456.5C 466.71,455.391 466.21,454.058 466,452.5C 462.962,455.203 460.295,458.203 458,461.5C 445.211,481.122 433.044,501.122 421.5,521.5C 417.678,527.806 413.845,534.139 410,540.5C 408.981,541.687 407.814,542.687 406.5,543.5C 405.893,543.376 405.56,543.043 405.5,542.5C 434.725,492.39 464.225,442.39 494,392.5C 495.579,390.959 497.413,389.792 499.5,389C 508.943,385.778 518.276,382.278 527.5,378.5C 530.249,390.657 531.416,402.991 531,415.5C 499.156,464.528 467.323,513.528 435.5,562.5 Z"/></g>
<g><path style="opacity:0.999" fill="#f7cd6b" d="M 368.5,379.5 C 370.612,380.594 372.779,381.594 375,382.5C 375.044,385.475 374.877,388.475 374.5,391.5C 372.498,402.341 374.331,412.674 380,422.5C 382.446,424.959 384.946,427.292 387.5,429.5C 385.978,430.562 384.312,431.229 382.5,431.5C 376.255,424.599 371.255,416.933 367.5,408.5C 365.867,398.712 366.2,389.045 368.5,379.5 Z"/></g>
<g><path style="opacity:0.998" fill="#f4c967" d="M 215.5,380.5 C 218.891,382.615 222.391,384.615 226,386.5C 222.708,403.633 228.208,417.133 242.5,427C 234.266,424.542 227.266,420.042 221.5,413.5C 217.09,402.972 215.09,391.972 215.5,380.5 Z"/></g>
<g><path style="opacity:0.937" fill="#7d6401" d="M 332.5,381.5 C 333.434,382.568 333.768,383.901 333.5,385.5C 330.615,385.806 327.948,385.473 325.5,384.5C 327.833,384.5 330.167,384.5 332.5,384.5C 332.5,383.5 332.5,382.5 332.5,381.5 Z"/></g>
<g><path style="opacity:1" fill="#f6f8f7" d="M 394.5,388.5 C 394.592,393.563 392.926,397.897 389.5,401.5C 387.565,400.85 385.565,400.517 383.5,400.5C 383.417,407.17 386.084,412.337 391.5,416C 393.134,416.494 394.801,416.66 396.5,416.5C 396.575,413.794 396.908,411.127 397.5,408.5C 399.5,408.5 401.5,408.5 403.5,408.5C 404.354,402.879 404.687,397.212 404.5,391.5C 405.458,391.953 406.292,392.619 407,393.5C 407.499,398.489 407.666,403.489 407.5,408.5C 405.779,413.77 403.112,418.603 399.5,423C 390.822,428.557 383.988,426.724 379,417.5C 375.248,409.238 373.748,400.571 374.5,391.5C 375.768,389.095 376.435,386.428 376.5,383.5C 382.5,385.167 388.5,386.833 394.5,388.5 Z"/></g>
<g><path style="opacity:0.999" fill="#f7cc69" d="M 305.5,389.5 C 304.167,389.5 302.833,389.5 301.5,389.5C 301.128,397.612 299.128,405.279 295.5,412.5C 292.369,415.129 289.369,417.962 286.5,421C 285.255,421.791 283.922,422.291 282.5,422.5C 291.879,412.627 295.213,400.96 292.5,387.5C 297.1,387.28 301.433,387.946 305.5,389.5 Z"/></g>
<g><path style="opacity:0.999" fill="#036932" d="M 265.5,387.5 C 275.48,389.129 278.313,394.462 274,403.5C 266.404,409.818 260.571,408.484 256.5,399.5C 261.777,397.221 264.777,393.221 265.5,387.5 Z"/></g>
<g><path style="opacity:0.999" fill="#066832" d="M 394.5,388.5 C 397.924,389.51 401.257,390.51 404.5,391.5C 402.833,391.5 401.167,391.5 399.5,391.5C 399.666,395.514 399.499,399.514 399,403.5C 395.132,407.582 391.965,406.916 389.5,401.5C 392.926,397.897 394.592,393.563 394.5,388.5 Z"/></g>
<g><path style="opacity:0.999" fill="#fff7e6" d="M 336.5,394.5 C 344.565,395.89 349.898,400.557 352.5,408.5C 347.925,408.622 343.258,408.788 338.5,409C 334.622,410.47 330.622,411.303 326.5,411.5C 327.529,404.436 330.863,398.769 336.5,394.5 Z"/></g>
<g><path style="opacity:1" fill="#f8ebcd" d="M 413.5,394.5 C 414.117,394.611 414.617,394.944 415,395.5C 416.378,401.508 415.211,406.841 411.5,411.5C 409.98,405.717 410.647,400.05 413.5,394.5 Z"/></g>
<g><path style="opacity:0.999" fill="#14d068" d="M 268.5,377.5 C 271.873,378.066 274.873,379.399 277.5,381.5C 285.395,389.928 286.395,399.095 280.5,409C 278.187,408.851 275.853,408.351 273.5,407.5C 272.558,407.608 271.725,407.941 271,408.5C 270.007,411.308 269.173,414.141 268.5,417C 255.229,418.212 247.229,412.379 244.5,399.5C 248.5,399.5 252.5,399.5 256.5,399.5C 260.571,408.484 266.404,409.818 274,403.5C 278.313,394.462 275.48,389.129 265.5,387.5C 265.384,384.14 265.051,380.807 264.5,377.5C 265.833,377.5 267.167,377.5 268.5,377.5 Z"/></g>
<g><path style="opacity:1" fill="#c9d2d4" d="M 433.5,561.5 C 424.603,554.22 414.937,548.22 404.5,543.5C 404.5,542.833 404.833,542.5 405.5,542.5C 405.56,543.043 405.893,543.376 406.5,543.5C 407.814,542.687 408.981,541.687 410,540.5C 413.845,534.139 417.678,527.806 421.5,521.5C 422.583,521.461 423.583,521.127 424.5,520.5C 425.298,522.078 425.798,523.744 426,525.5C 440.862,503.108 454.695,480.108 467.5,456.5C 476.892,441.396 486.059,426.062 495,410.5C 500.01,403.572 506.843,399.572 515.5,398.5C 518.326,406.252 518.159,413.919 515,421.5C 499.587,443.32 484.921,465.653 471,488.5C 470.333,489.167 470.333,489.833 471,490.5C 474.333,486.5 477.667,482.5 481,478.5C 482.301,480.365 482.635,482.365 482,484.5C 466,509.167 450,533.833 434,558.5C 433.517,559.448 433.351,560.448 433.5,561.5 Z"/></g>
<g><path style="opacity:1" fill="#e7be61" d="M 413.5,394.5 C 410.647,400.05 409.98,405.717 411.5,411.5C 406.45,418.253 405.117,417.253 407.5,408.5C 408.889,403.731 409.556,398.731 409.5,393.5C 410.959,393.433 412.292,393.766 413.5,394.5 Z"/></g>
<g><path style="opacity:0.999" fill="#14cf68" d="M 404.5,391.5 C 404.687,397.212 404.354,402.879 403.5,408.5C 401.5,408.5 399.5,408.5 397.5,408.5C 396.908,411.127 396.575,413.794 396.5,416.5C 394.801,416.66 393.134,416.494 391.5,416C 386.084,412.337 383.417,407.17 383.5,400.5C 385.565,400.517 387.565,400.85 389.5,401.5C 391.965,406.916 395.132,407.582 399,403.5C 399.499,399.514 399.666,395.514 399.5,391.5C 401.167,391.5 402.833,391.5 404.5,391.5 Z"/></g>
<g><path style="opacity:1" fill="#c2cacc" d="M 429.5,402.5 C 422.492,412.688 414.492,422.188 405.5,431C 400.965,433.767 396.299,436.267 391.5,438.5C 390.883,438.611 390.383,438.944 390,439.5C 389.064,443.114 388.564,446.78 388.5,450.5C 386.806,445.743 386.306,440.743 387,435.5C 399.155,429.755 409.155,421.422 417,410.5C 418.833,407.5 420.667,404.5 422.5,401.5C 423.667,401.167 424.833,400.833 426,400.5C 427.681,400.608 428.848,401.275 429.5,402.5 Z"/></g>
<g><path style="opacity:1" fill="#edf0f0" d="M 429.5,402.5 C 429.5,403.833 429.5,405.167 429.5,406.5C 422.245,415.417 418.412,425.751 418,437.5C 415.065,451.607 406.565,459.607 392.5,461.5C 391.793,453.854 391.46,446.187 391.5,438.5C 396.299,436.267 400.965,433.767 405.5,431C 414.492,422.188 422.492,412.688 429.5,402.5 Z"/></g>
<g><path style="opacity:0.999" fill="#d8dee0" d="M 429.5,406.5 C 429.498,415.858 428.998,425.191 428,434.5C 425.355,452.803 416.522,467.303 401.5,478C 398.691,479.741 395.691,480.908 392.5,481.5C 390.921,471.203 389.588,460.87 388.5,450.5C 388.564,446.78 389.064,443.114 390,439.5C 390.383,438.944 390.883,438.611 391.5,438.5C 391.46,446.187 391.793,453.854 392.5,461.5C 406.565,459.607 415.065,451.607 418,437.5C 418.412,425.751 422.245,415.417 429.5,406.5 Z"/></g>
<g><path style="opacity:0.998" fill="#fce8b6" d="M 367.5,408.5 C 371.255,416.933 376.255,424.599 382.5,431.5C 382.5,433.833 382.5,436.167 382.5,438.5C 382.739,440.467 382.406,442.301 381.5,444C 350.918,454.042 319.585,457.376 287.5,454C 281.128,453.382 274.794,452.549 268.5,451.5C 269.815,446.906 270.815,442.239 271.5,437.5C 263.895,436.265 256.562,434.099 249.5,431C 255.833,430.667 262.167,430.333 268.5,430C 273.674,428.249 278.341,425.749 282.5,422.5C 283.922,422.291 285.255,421.791 286.5,421C 289.369,417.962 292.369,415.129 295.5,412.5C 294.084,415.568 292.75,418.734 291.5,422C 291.645,422.772 291.978,423.439 292.5,424C 301.215,427.431 310.215,430.098 319.5,432C 336.805,434.257 352.971,431.09 368,422.5C 368.717,417.78 368.55,413.114 367.5,408.5 Z"/></g>
<g><path style="opacity:0.999" fill="#f4f6f6" d="M 199.5,414.5 C 200.552,414.351 201.552,414.517 202.5,415C 217.104,430.308 234.77,440.474 255.5,445.5C 255.833,446.833 256.167,448.167 256.5,449.5C 255.831,453.843 255.164,458.177 254.5,462.5C 253.827,457.564 252.827,452.564 251.5,447.5C 248.326,451.835 244.993,456.002 241.5,460C 236.06,461.174 231.06,460.174 226.5,457C 223.667,454.167 220.833,451.333 218,448.5C 215.668,441.845 213.335,435.178 211,428.5C 207.631,424.963 204.131,421.629 200.5,418.5C 199.596,417.791 199.263,416.791 199.5,415.5C 199.5,415.167 199.5,414.833 199.5,414.5 Z"/></g>
<g><path style="opacity:1" fill="#ccd4d6" d="M 199.5,415.5 C 199.263,416.791 199.596,417.791 200.5,418.5C 197.006,432.526 199.84,445.193 209,456.5C 218.821,468.995 231.654,476.162 247.5,478C 248.46,479.419 249.293,480.919 250,482.5C 252.285,476.005 253.785,469.338 254.5,462.5C 255.164,458.177 255.831,453.843 256.5,449.5C 256.167,448.167 255.833,446.833 255.5,445.5C 234.77,440.474 217.104,430.308 202.5,415C 201.552,414.517 200.552,414.351 199.5,414.5C 200.139,410.473 200.972,406.473 202,402.5C 213.07,415.766 226.237,426.266 241.5,434C 249.535,437.005 257.535,440.005 265.5,443C 259.389,461.167 253.389,479.333 247.5,497.5C 244.549,498.224 241.549,498.057 238.5,497C 211.511,489.508 190.178,474.175 174.5,451C 187.009,442.009 195.343,430.176 199.5,415.5 Z"/></g>
<g><path style="opacity:0.995" fill="#e3e8e9" d="M 200.5,418.5 C 204.131,421.629 207.631,424.963 211,428.5C 213.335,435.178 215.668,441.845 218,448.5C 220.833,451.333 223.667,454.167 226.5,457C 231.06,460.174 236.06,461.174 241.5,460C 244.993,456.002 248.326,451.835 251.5,447.5C 252.827,452.564 253.827,457.564 254.5,462.5C 253.785,469.338 252.285,476.005 250,482.5C 249.293,480.919 248.46,479.419 247.5,478C 231.654,476.162 218.821,468.995 209,456.5C 199.84,445.193 197.006,432.526 200.5,418.5 Z"/></g>
<g><path style="opacity:0.999" fill="#c2cbcc" d="M 429.5,406.5 C 431.224,422.647 432.058,438.981 432,455.5C 426.024,466.618 417.857,475.785 407.5,483C 403.137,485.684 398.47,487.518 393.5,488.5C 393.007,486.194 392.674,483.861 392.5,481.5C 395.691,480.908 398.691,479.741 401.5,478C 416.522,467.303 425.355,452.803 428,434.5C 428.998,425.191 429.498,415.858 429.5,406.5 Z"/></g>
<g><path style="opacity:0.998" fill="#13110e" d="M 311.5,434.5 C 311.56,433.957 311.893,433.624 312.5,433.5C 322.553,438.811 333.22,440.977 344.5,440C 346.96,438.542 349.127,436.709 351,434.5C 351.051,442.282 347.217,446.282 339.5,446.5C 329.231,444.699 319.897,440.699 311.5,434.5 Z"/></g>
<g><path style="opacity:0.999" fill="#face6a" d="M 382.5,438.5 C 384.525,443.819 385.191,449.319 384.5,455C 361.645,465.692 337.645,469.359 312.5,466C 296.824,464.529 281.157,463.029 265.5,461.5C 265.899,457.884 266.899,454.55 268.5,451.5C 274.794,452.549 281.128,453.382 287.5,454C 319.585,457.376 350.918,454.042 381.5,444C 382.406,442.301 382.739,440.467 382.5,438.5 Z"/></g>
<g><path style="opacity:0.993" fill="#dbe1e3" d="M 467.5,456.5 C 454.695,480.108 440.862,503.108 426,525.5C 425.798,523.744 425.298,522.078 424.5,520.5C 423.583,521.127 422.583,521.461 421.5,521.5C 433.044,501.122 445.211,481.122 458,461.5C 460.295,458.203 462.962,455.203 466,452.5C 466.21,454.058 466.71,455.391 467.5,456.5 Z"/></g>
<g><path style="opacity:1" fill="#fcfcfc" d="M 234.5,501.5 C 234.233,507.838 233.9,514.171 233.5,520.5C 237.833,520.5 242.167,520.5 246.5,520.5C 246.5,525.167 246.5,529.833 246.5,534.5C 253.354,534.824 260.021,534.491 266.5,533.5C 266.5,533.167 266.5,532.833 266.5,532.5C 267.525,529.026 268.192,525.36 268.5,521.5C 269.5,521.5 270.5,521.5 271.5,521.5C 270.833,528.833 270.167,536.167 269.5,543.5C 257.416,540.646 247.416,544.146 239.5,554C 220.304,556.493 201.304,555.659 182.5,551.5C 181.393,541.771 182.06,532.104 184.5,522.5C 191.764,516.303 196.764,508.636 199.5,499.5C 200.945,495.476 200.612,491.476 198.5,487.5C 195.314,490.521 191.98,493.354 188.5,496C 185.794,497.908 182.794,498.741 179.5,498.5C 177.993,494.155 175.827,490.155 173,486.5C 167.237,480.231 161.071,474.564 154.5,469.5C 161.691,465.619 169.358,464.119 177.5,465C 192.736,483.074 211.736,495.241 234.5,501.5 Z"/></g>
<g><path style="opacity:0.999" fill="#cc3a0a" d="M 154.5,469.5 C 161.071,474.564 167.237,480.231 173,486.5C 175.827,490.155 177.993,494.155 179.5,498.5C 181.476,504.401 183.142,510.401 184.5,516.5C 182.381,518.4 180.047,520.066 177.5,521.5C 176.094,500.444 166.428,484.444 148.5,473.5C 150.463,472.18 152.463,470.846 154.5,469.5 Z"/></g>
<g><path style="opacity:0.999" fill="#f7f5f5" d="M 312.5,481.5 C 305.15,481.779 298.15,483.446 291.5,486.5C 292.365,483.9 293.032,481.233 293.5,478.5C 292.825,475.822 292.158,473.156 291.5,470.5C 301.064,469.421 308.064,473.088 312.5,481.5 Z"/></g>
<g><path style="opacity:0.999" fill="#f2efef" d="M 148.5,473.5 C 166.428,484.444 176.094,500.444 177.5,521.5C 174.262,523.639 170.762,525.306 167,526.5C 168.889,511.068 164.056,497.902 152.5,487C 148.874,484.237 144.874,482.237 140.5,481C 143.036,478.295 145.703,475.795 148.5,473.5 Z"/></g>
<g><path style="opacity:0.998" fill="#2e2e2e" d="M 263.5,468.5 C 270.547,468.337 277.547,468.837 284.5,470C 288.637,474.587 289.471,479.753 287,485.5C 285.235,487.774 283.068,489.441 280.5,490.5C 273.387,485.896 266.387,481.063 259.5,476C 261.2,473.741 262.533,471.241 263.5,468.5 Z"/></g>
<g><path style="opacity:1" fill="#eaeded" d="M 105.5,483.5 C 133.256,504.226 144.089,531.893 138,566.5C 134.229,595.906 120.396,619.072 96.5,636C 86.2182,641.816 75.2182,645.316 63.5,646.5C 61.7085,646.634 60.0418,646.301 58.5,645.5C 74.781,644.738 89.4477,639.405 102.5,629.5C 124.44,610.614 135.273,586.614 135,557.5C 132.957,559.208 131.29,561.208 130,563.5C 129.667,563.167 129.333,562.833 129,562.5C 128.064,552.934 126.564,543.601 124.5,534.5C 120.58,514.823 109.58,500.657 91.5,492C 73.1885,486.274 56.5218,489.274 41.5,501C 31.2471,509.697 23.5804,520.197 18.5,532.5C 16.7757,529.655 15.4423,526.655 14.5,523.5C 25.3642,499.798 43.3642,484.631 68.5,478C 81.5364,476.088 93.8698,477.922 105.5,483.5 Z"/></g>
<g><path style="opacity:0.999" fill="#ca3b0d" d="M 312.5,481.5 C 314.063,482.945 315.396,484.611 316.5,486.5C 303.761,487.873 292.427,492.54 282.5,500.5C 282.343,499.127 282.51,497.793 283,496.5C 285.698,492.975 288.531,489.642 291.5,486.5C 298.15,483.446 305.15,481.779 312.5,481.5 Z"/></g>
<g><path style="opacity:1" fill="#e2d4d0" d="M 265.5,485.5 C 262.833,485.5 260.167,485.5 257.5,485.5C 260.167,481.5 262.833,481.5 265.5,485.5 Z"/></g>
<g><path style="opacity:1" fill="#cb3402" d="M 257.5,485.5 C 260.167,485.5 262.833,485.5 265.5,485.5C 266.872,486.512 268.205,487.512 269.5,488.5C 269.5,492.167 269.5,495.833 269.5,499.5C 271.5,499.5 273.5,499.5 275.5,499.5C 275.5,500.833 275.5,502.167 275.5,503.5C 274.028,507.919 273.362,512.586 273.5,517.5C 271.599,518.931 269.432,519.931 267,520.5C 266.501,524.486 266.334,528.486 266.5,532.5C 266.5,532.833 266.5,533.167 266.5,533.5C 260.167,533.5 253.833,533.5 247.5,533.5C 247.818,528.968 247.485,524.634 246.5,520.5C 242.167,520.5 237.833,520.5 233.5,520.5C 233.9,514.171 234.233,507.838 234.5,501.5C 240.023,503.137 245.69,504.137 251.5,504.5C 253.054,497.926 255.054,491.593 257.5,485.5 Z"/></g>
<g><path style="opacity:0.999" fill="#abb8bb" d="M 105.5,483.5 C 109.856,484.511 113.856,486.344 117.5,489C 143.44,513.17 152.274,542.67 144,577.5C 138.068,602.9 124.568,623.067 103.5,638C 91.0602,645.919 77.7269,648.753 63.5,646.5C 75.2182,645.316 86.2182,641.816 96.5,636C 120.396,619.072 134.229,595.906 138,566.5C 144.089,531.893 133.256,504.226 105.5,483.5 Z"/></g>
<g><path style="opacity:0.999" fill="#f9f6f5" d="M 316.5,486.5 C 318.748,489.954 319.415,493.621 318.5,497.5C 309.862,496.158 301.862,497.991 294.5,503C 290.667,506.167 286.833,509.333 283,512.5C 282.501,508.514 282.334,504.514 282.5,500.5C 292.427,492.54 303.761,487.873 316.5,486.5 Z"/></g>
<g><path style="opacity:0.997" fill="#e3e1e1" d="M 199.5,499.5 C 199.657,498.127 199.49,496.793 199,495.5C 196.283,504.035 191.45,511.035 184.5,516.5C 183.142,510.401 181.476,504.401 179.5,498.5C 182.794,498.741 185.794,497.908 188.5,496C 191.98,493.354 195.314,490.521 198.5,487.5C 200.612,491.476 200.945,495.476 199.5,499.5 Z"/></g>
<g><path style="opacity:1" fill="#afbabd" d="M 124.5,534.5 C 124.5,536.833 124.5,539.167 124.5,541.5C 121.713,526.502 114.713,513.669 103.5,503C 82.8369,489.574 62.8369,490.574 43.5,506C 17.751,531.162 10.251,560.996 21,595.5C 33.7526,624.626 55.2526,634.293 85.5,624.5C 82.0099,627.415 78.0099,629.582 73.5,631C 46.3881,633.859 27.5548,622.692 17,597.5C 9.34913,575.644 9.84913,553.978 18.5,532.5C 23.5804,520.197 31.2471,509.697 41.5,501C 56.5218,489.274 73.1885,486.274 91.5,492C 109.58,500.657 120.58,514.823 124.5,534.5 Z"/></g>
<g><path style="opacity:1" fill="#f2ebea" d="M 269.5,488.5 C 271.907,489.794 274.074,491.461 276,493.5C 276.789,495.712 276.622,497.712 275.5,499.5C 273.5,499.5 271.5,499.5 269.5,499.5C 269.5,495.833 269.5,492.167 269.5,488.5 Z"/></g>
<g><path style="opacity:0.998" fill="#424242" d="M 141.5,487.5 C 143.199,487.34 144.866,487.506 146.5,488C 152.709,492.867 157.376,498.867 160.5,506C 157.672,513.192 152.505,518.025 145,520.5C 140.395,511.467 134.895,502.967 128.5,495C 132.896,492.473 137.229,489.973 141.5,487.5 Z"/></g>
<g><path style="opacity:1" fill="#4c2928" d="M 124.5,541.5 C 126.523,561.041 122.856,579.374 113.5,596.5C 103.433,591.587 93.0993,587.254 82.5,583.5C 83.6923,581.887 84.6923,580.22 85.5,578.5C 85.5614,580.592 86.5614,582.092 88.5,583C 96.4303,585.976 104.264,589.142 112,592.5C 116.152,586.061 119.152,579.061 121,571.5C 121.72,569.888 121.554,568.388 120.5,567C 111.425,562.477 102.091,558.643 92.5,555.5C 92.5,554.5 92.5,553.5 92.5,552.5C 101.812,556.154 111.145,559.82 120.5,563.5C 121.192,562.975 121.692,562.308 122,561.5C 122.949,551.679 122.115,542.012 119.5,532.5C 100.254,523.708 80.9202,515.208 61.5,507C 58.3779,505.096 55.0445,504.429 51.5,505C 43.4604,510.241 37.1271,517.074 32.5,525.5C 38.7022,529.101 45.0356,532.434 51.5,535.5C 51.5,536.167 51.1667,536.5 50.5,536.5C 43.8546,533.846 37.1879,531.18 30.5,528.5C 25.5553,536.168 22.722,544.502 22,553.5C 27.6466,556.403 33.1466,559.403 38.5,562.5C 32.4083,561.581 26.4083,559.581 20.5,556.5C 19.1419,566.248 19.6419,575.915 22,585.5C 22.7845,587.286 23.9512,588.786 25.5,590C 46.7719,599.423 68.2719,608.256 90,616.5C 98.0341,611.806 104.867,605.639 110.5,598C 111.094,597.536 111.761,597.369 112.5,597.5C 105.806,608.861 96.8058,617.861 85.5,624.5C 55.2526,634.293 33.7526,624.626 21,595.5C 10.251,560.996 17.751,531.162 43.5,506C 62.8369,490.574 82.8369,489.574 103.5,503C 114.713,513.669 121.713,526.502 124.5,541.5 Z"/></g>
<g><path style="opacity:0.998" fill="#653232" d="M 69.5,497.5 C 92.1837,495.902 107.517,505.568 115.5,526.5C 96.921,519.693 78.5877,512.193 60.5,504C 58.8753,503.147 58.5419,502.147 59.5,501C 62.8502,499.514 66.1835,498.347 69.5,497.5 Z"/></g>
<g><path style="opacity:0.998" fill="#414141" d="M 306.5,501.5 C 309.187,501.336 311.854,501.503 314.5,502C 317.538,504.703 320.205,507.703 322.5,511C 318.531,512.984 314.531,514.984 310.5,517C 306.29,521.042 302.29,525.208 298.5,529.5C 293.17,524.678 290.67,518.678 291,511.5C 295.806,507.519 300.973,504.186 306.5,501.5 Z"/></g>
<g><path style="opacity:0.999" fill="#6c3636" d="M 92.5,552.5 C 91.8374,540.997 86.5041,532.497 76.5,527C 66.4397,524.964 58.1064,527.797 51.5,535.5C 45.0356,532.434 38.7022,529.101 32.5,525.5C 37.1271,517.074 43.4604,510.241 51.5,505C 55.0445,504.429 58.3779,505.096 61.5,507C 80.9202,515.208 100.254,523.708 119.5,532.5C 122.115,542.012 122.949,551.679 122,561.5C 121.692,562.308 121.192,562.975 120.5,563.5C 111.145,559.82 101.812,556.154 92.5,552.5 Z"/></g>
<g><path style="opacity:0.999" fill="#7c3e3e" d="M 321.5,513.5 C 332.643,512.241 341.977,515.741 349.5,524C 348.833,524.667 348.167,525.333 347.5,526C 328.953,524.872 317.453,533.372 313,551.5C 312.148,556.002 312.648,560.335 314.5,564.5C 314.297,566.208 313.464,567.541 312,568.5C 300.657,562.145 295.99,552.478 298,539.5C 301.175,526.498 309.008,517.831 321.5,513.5 Z"/></g>
<g><path style="opacity:0.961" fill="#938079" d="M 275.5,503.5 C 275.877,508.453 275.211,513.119 273.5,517.5C 273.362,512.586 274.028,507.919 275.5,503.5 Z"/></g>
<g><path style="opacity:0.999" fill="#e1e1e1" d="M 184.5,522.5 C 182.06,532.104 181.393,541.771 182.5,551.5C 176.807,550.214 171.474,548.047 166.5,545C 163.989,540.045 163.989,535.045 166.5,530C 173.063,528.759 179.063,526.259 184.5,522.5 Z"/></g>
<g><path style="opacity:0.992" fill="#c4c2c1" d="M 273.5,517.5 C 273.25,526.468 271.917,535.135 269.5,543.5C 270.167,536.167 270.833,528.833 271.5,521.5C 270.5,521.5 269.5,521.5 268.5,521.5C 268.192,525.36 267.525,529.026 266.5,532.5C 266.334,528.486 266.501,524.486 267,520.5C 269.432,519.931 271.599,518.931 273.5,517.5 Z"/></g>
<g><path style="opacity:0.999" fill="#723838" d="M 50.5,536.5 C 43.0833,547.834 40.5833,560.167 43,573.5C 46.7557,588.953 56.2557,594.786 71.5,591C 75.5423,588.984 79.209,586.484 82.5,583.5C 93.0993,587.254 103.433,591.587 113.5,596.5C 113.5,597.167 113.167,597.5 112.5,597.5C 111.761,597.369 111.094,597.536 110.5,598C 104.867,605.639 98.0341,611.806 90,616.5C 68.2719,608.256 46.7719,599.423 25.5,590C 23.9512,588.786 22.7845,587.286 22,585.5C 19.6419,575.915 19.1419,566.248 20.5,556.5C 26.4083,559.581 32.4083,561.581 38.5,562.5C 33.1466,559.403 27.6466,556.403 22,553.5C 22.722,544.502 25.5553,536.168 30.5,528.5C 37.1879,531.18 43.8546,533.846 50.5,536.5 Z"/></g>
<g><path style="opacity:0.919" fill="#e48f72" d="M 246.5,520.5 C 247.485,524.634 247.818,528.968 247.5,533.5C 253.833,533.5 260.167,533.5 266.5,533.5C 260.021,534.491 253.354,534.824 246.5,534.5C 246.5,529.833 246.5,525.167 246.5,520.5 Z"/></g>
<g><path style="opacity:0.996" fill="#3e3e3e" d="M 335.5,527.5 C 342.776,526.98 348.776,529.48 353.5,535C 347.857,537.155 342.857,540.321 338.5,544.5C 334.822,549.206 331.156,553.872 327.5,558.5C 323.156,556.329 319.156,553.663 315.5,550.5C 319.189,540.043 325.856,532.376 335.5,527.5 Z"/></g>
<g><path style="opacity:1" fill="#eceeef" d="M 374.5,557.5 C 372.251,558.08 370.585,559.413 369.5,561.5C 366.167,564.5 362.833,567.5 359.5,570.5C 357.011,570.702 354.677,570.202 352.5,569C 346.589,564.253 341.256,559.087 336.5,553.5C 350.403,534.512 365.403,533.679 381.5,551C 378.712,552.719 376.379,554.885 374.5,557.5 Z"/></g>
<g><path style="opacity:0.999" fill="#d2d9da" d="M 14.5,523.5 C 15.4423,526.655 16.7757,529.655 18.5,532.5C 9.84913,553.978 9.34913,575.644 17,597.5C 27.5548,622.692 46.3881,633.859 73.5,631C 78.0099,629.582 82.0099,627.415 85.5,624.5C 96.8058,617.861 105.806,608.861 112.5,597.5C 113.167,597.5 113.5,597.167 113.5,596.5C 122.856,579.374 126.523,561.041 124.5,541.5C 124.5,539.167 124.5,536.833 124.5,534.5C 126.564,543.601 128.064,552.934 129,562.5C 129.333,562.833 129.667,563.167 130,563.5C 131.29,561.208 132.957,559.208 135,557.5C 135.273,586.614 124.44,610.614 102.5,629.5C 103.014,627.488 103.18,625.488 103,623.5C 92.2607,627.191 81.4274,630.691 70.5,634C 48.651,636.159 31.8176,627.992 20,609.5C 14.5151,598.192 9.84841,586.525 6,574.5C 5.58309,575.756 4.74975,576.423 3.5,576.5C 2.26953,557.764 5.93619,540.097 14.5,523.5 Z"/></g>
<g><path style="opacity:0.999" fill="#944d4d" d="M 156.5,542.5 C 160.291,545.118 163.957,547.951 167.5,551C 177.075,555.183 187.075,557.85 197.5,559C 210.496,559.5 223.496,559.667 236.5,559.5C 236.5,560.833 236.5,562.167 236.5,563.5C 217.104,565.322 197.77,564.488 178.5,561C 170.935,559.376 164.435,555.876 159,550.5C 157.293,548.091 156.46,545.425 156.5,542.5 Z"/></g>
<g><path style="opacity:0.999" fill="#894848" d="M 274.5,543.5 C 276.167,543.5 277.833,543.5 279.5,543.5C 280.917,556.791 278.584,558.124 272.5,547.5C 273.18,546.14 273.847,544.807 274.5,543.5 Z"/></g>
<g><path style="opacity:1" fill="#818181" d="M 433.5,564.5 C 435.783,567.797 438.116,571.131 440.5,574.5C 439.675,575.386 438.675,575.719 437.5,575.5C 427.206,568.347 416.539,561.68 405.5,555.5C 402.842,551.65 399.176,549.15 394.5,548C 386.074,542.573 386.74,541.24 396.5,544C 410.081,548.786 422.414,555.619 433.5,564.5 Z"/></g>
<g><path style="opacity:1" fill="#fafbfb" d="M 273.5,557.5 C 273.611,561.349 272.278,564.516 269.5,567C 264.167,567.667 258.833,567.667 253.5,567C 251.671,566.727 250.171,565.893 249,564.5C 247.096,561.077 246.263,557.41 246.5,553.5C 252.512,547.037 259.512,545.87 267.5,550C 270.094,552.086 272.094,554.586 273.5,557.5 Z"/></g>
<g><path style="opacity:1" fill="#1c1c1c" d="M 398.5,541.5 C 400.102,543.074 402.102,543.741 404.5,543.5C 414.937,548.22 424.603,554.22 433.5,561.5C 434.167,561.833 434.833,562.167 435.5,562.5C 435.167,563.5 434.5,564.167 433.5,564.5C 422.414,555.619 410.081,548.786 396.5,544C 386.74,541.24 386.074,542.573 394.5,548C 399.176,549.15 402.842,551.65 405.5,555.5C 405.586,557.677 406.253,559.677 407.5,561.5C 410.235,563.521 412.901,565.521 415.5,567.5C 414.957,567.56 414.624,567.893 414.5,568.5C 415.657,570.683 416.99,572.683 418.5,574.5C 417.504,574.414 416.671,574.748 416,575.5C 415.086,577.664 413.919,579.664 412.5,581.5C 414.283,583.232 416.283,584.732 418.5,586C 419.252,586.671 419.586,587.504 419.5,588.5C 414.719,585.74 409.552,584.073 404,583.5C 401.213,583.789 398.713,584.789 396.5,586.5C 394.833,585.833 393.167,585.167 391.5,584.5C 393.735,584.795 395.735,584.461 397.5,583.5C 399.708,582.106 401.208,580.106 402,577.5C 403.355,571.215 403.689,564.882 403,558.5C 401.623,556.246 400.123,554.08 398.5,552C 395.854,551.503 393.187,551.336 390.5,551.5C 389.674,549.736 388.341,548.402 386.5,547.5C 384.719,544.777 383.052,541.943 381.5,539C 382,538.5 382.5,538 383,537.5C 388.302,538.284 393.468,539.617 398.5,541.5 Z"/></g>
<g><path style="opacity:0.999" fill="#d9dfe0" d="M 390.5,551.5 C 393.187,551.336 395.854,551.503 398.5,552C 400.123,554.08 401.623,556.246 403,558.5C 403.689,564.882 403.355,571.215 402,577.5C 401.208,580.106 399.708,582.106 397.5,583.5C 392.233,582.318 389.899,578.985 390.5,573.5C 390.577,566.429 392.911,560.263 397.5,555C 393.973,554.192 390.64,554.359 387.5,555.5C 385.292,556.894 383.792,558.894 383,561.5C 382.888,566.126 381.721,570.459 379.5,574.5C 380.456,576.075 381.123,577.742 381.5,579.5C 379.465,582.026 378.132,584.859 377.5,588C 378.25,591.83 378.917,595.663 379.5,599.5C 377.291,604.607 374.124,608.941 370,612.5C 363.952,610.897 358.786,607.897 354.5,603.5C 353.326,602.486 352.66,601.153 352.5,599.5C 353.404,598.791 353.737,597.791 353.5,596.5C 359.571,585.346 364.904,573.679 369.5,561.5C 370.585,559.413 372.251,558.08 374.5,557.5C 374.435,557.938 374.601,558.272 375,558.5C 379.361,554.403 384.528,552.07 390.5,551.5 Z"/></g>
<g><path style="opacity:0.999" fill="#c9d0d2" d="M 336.5,553.5 C 341.256,559.087 346.589,564.253 352.5,569C 354.677,570.202 357.011,570.702 359.5,570.5C 357.766,574.702 356.433,579.035 355.5,583.5C 346.874,582.188 339.207,578.688 332.5,573C 331.549,569.943 331.216,566.777 331.5,563.5C 332.127,559.58 333.793,556.247 336.5,553.5 Z"/></g>
<g><path style="opacity:0.999" fill="#aebabd" d="M 387.5,555.5 C 390.64,554.359 393.973,554.192 397.5,555C 392.911,560.263 390.577,566.429 390.5,573.5C 389.899,578.985 392.233,582.318 397.5,583.5C 395.735,584.461 393.735,584.795 391.5,584.5C 387.98,583.817 385.48,581.817 384,578.5C 382.656,570.548 384.156,563.214 388.5,556.5C 388.376,555.893 388.043,555.56 387.5,555.5 Z"/></g>
<g><path style="opacity:1" fill="#6a3535" d="M 92.5,555.5 C 102.091,558.643 111.425,562.477 120.5,567C 121.554,568.388 121.72,569.888 121,571.5C 119.152,579.061 116.152,586.061 112,592.5C 104.264,589.142 96.4303,585.976 88.5,583C 86.5614,582.092 85.5614,580.592 85.5,578.5C 88.6282,570.966 90.9616,563.299 92.5,555.5 Z"/></g>
<g><path style="opacity:0.989" fill="#636363" d="M 405.5,555.5 C 416.539,561.68 427.206,568.347 437.5,575.5C 429.73,573.944 422.397,571.278 415.5,567.5C 412.901,565.521 410.235,563.521 407.5,561.5C 406.253,559.677 405.586,557.677 405.5,555.5 Z"/></g>
<g><path style="opacity:0.999" fill="#aebbbd" d="M 244.5,555.5 C 243.756,575.786 253.09,583.119 272.5,577.5C 266.017,586.79 257.683,588.957 247.5,584C 240.908,577.894 238.742,570.394 241,561.5C 241.941,559.273 243.108,557.273 244.5,555.5 Z"/></g>
<g><path style="opacity:0.998" fill="#dce1e2" d="M 246.5,553.5 C 246.263,557.41 247.096,561.077 249,564.5C 250.171,565.893 251.671,566.727 253.5,567C 258.833,567.667 264.167,567.667 269.5,567C 272.278,564.516 273.611,561.349 273.5,557.5C 276.174,564.182 275.841,570.849 272.5,577.5C 253.09,583.119 243.756,575.786 244.5,555.5C 244.833,554.5 245.5,553.833 246.5,553.5 Z"/></g>
<g><path style="opacity:0.999" fill="#6f3838" d="M 156.5,542.5 C 156.46,545.425 157.293,548.091 159,550.5C 164.435,555.876 170.935,559.376 178.5,561C 197.77,564.488 217.104,565.322 236.5,563.5C 236.447,569.196 236.78,574.862 237.5,580.5C 229.991,580.572 222.491,580.905 215,581.5C 205.375,582.604 197.208,579.77 190.5,573C 183.706,568.834 176.373,567.501 168.5,569C 161.357,573.734 157.191,571.9 156,563.5C 155.179,556.321 155.345,549.321 156.5,542.5 Z"/></g>
<g><path style="opacity:0.999" fill="#aebbbe" d="M 369.5,561.5 C 364.904,573.679 359.571,585.346 353.5,596.5C 353.719,595.325 353.386,594.325 352.5,593.5C 348.126,591.764 343.793,589.931 339.5,588C 330.28,581.843 327.614,573.677 331.5,563.5C 331.216,566.777 331.549,569.943 332.5,573C 339.207,578.688 346.874,582.188 355.5,583.5C 356.433,579.035 357.766,574.702 359.5,570.5C 362.833,567.5 366.167,564.5 369.5,561.5 Z"/></g>
<g><path style="opacity:1" fill="#301e1e" d="M 92.5,552.5 C 92.5,553.5 92.5,554.5 92.5,555.5C 90.9616,563.299 88.6282,570.966 85.5,578.5C 84.6923,580.22 83.6923,581.887 82.5,583.5C 79.209,586.484 75.5423,588.984 71.5,591C 56.2557,594.786 46.7557,588.953 43,573.5C 40.5833,560.167 43.0833,547.834 50.5,536.5C 51.1667,536.5 51.5,536.167 51.5,535.5C 58.1064,527.797 66.4397,524.964 76.5,527C 86.5041,532.497 91.8374,540.997 92.5,552.5 Z"/></g>
<g><path style="opacity:0.999" fill="#adb9bb" d="M 85.5,540.5 C 92.0752,556.474 89.4085,570.974 77.5,584C 67.8058,591.805 58.6391,591.305 50,582.5C 47.9504,579.852 46.7837,576.852 46.5,573.5C 61.4064,583.15 73.2398,580.15 82,564.5C 84.7763,556.73 85.943,548.73 85.5,540.5 Z"/></g>
<g><path style="opacity:0.998" fill="#dde1e3" d="M 80.5,534.5 C 82.8903,535.891 84.5569,537.891 85.5,540.5C 85.943,548.73 84.7763,556.73 82,564.5C 73.2398,580.15 61.4064,583.15 46.5,573.5C 44.6712,570.713 43.6712,567.546 43.5,564C 43.8551,560.303 44.5218,556.803 45.5,553.5C 46.2341,554.708 46.5674,556.041 46.5,557.5C 50.8526,556.681 54.3526,554.348 57,550.5C 62.0448,554.567 67.5448,555.401 73.5,553C 76.5136,547.127 78.8469,540.96 80.5,534.5 Z"/></g>
<g><path style="opacity:1" fill="#fbfbfb" d="M 80.5,534.5 C 78.8469,540.96 76.5136,547.127 73.5,553C 67.5448,555.401 62.0448,554.567 57,550.5C 54.3526,554.348 50.8526,556.681 46.5,557.5C 46.5674,556.041 46.2341,554.708 45.5,553.5C 48.2978,540.534 56.1312,532.867 69,530.5C 73.3683,530.566 77.2017,531.899 80.5,534.5 Z"/></g>
<g><path style="opacity:0.998" fill="#5a5a5a" d="M 405.5,572.5 C 413.377,573.45 414.377,576.45 408.5,581.5C 404.574,579.514 403.574,576.514 405.5,572.5 Z"/></g>
<g><path style="opacity:0.999" fill="#393939" d="M 188.5,577.5 C 187.894,595.155 182.061,610.822 171,624.5C 168.362,627.317 165.362,629.65 162,631.5C 161.225,638.792 159.725,645.792 157.5,652.5C 153.912,647.407 149.745,642.74 145,638.5C 146.041,630.903 146.875,623.237 147.5,615.5C 148.461,617.265 148.795,619.265 148.5,621.5C 166.368,617.781 174.535,606.781 173,588.5C 170.679,582.242 167.179,581.242 162.5,585.5C 159.112,589.876 155.778,594.209 152.5,598.5C 154.377,593.075 156.544,587.741 159,582.5C 162.655,574.524 168.821,571.358 177.5,573C 181.619,573.644 185.285,575.144 188.5,577.5 Z"/></g>
<g><path style="opacity:1" fill="#e0e4e5" d="M 418.5,574.5 C 421.449,575.614 423.615,577.614 425,580.5C 430.858,600.972 423.691,608.472 403.5,603C 397.834,602.525 394.167,599.692 392.5,594.5C 392.511,592.983 393.177,591.816 394.5,591C 405.444,588.645 414.277,591.812 421,600.5C 421.667,596.833 421.667,593.167 421,589.5C 420.617,588.944 420.117,588.611 419.5,588.5C 419.586,587.504 419.252,586.671 418.5,586C 416.283,584.732 414.283,583.232 412.5,581.5C 413.919,579.664 415.086,577.664 416,575.5C 416.671,574.748 417.504,574.414 418.5,574.5 Z"/></g>
<g><path style="opacity:0.999" fill="#c7d0d2" d="M 102.5,629.5 C 89.4477,639.405 74.781,644.738 58.5,645.5C 35.0145,641.193 18.8478,627.859 10,605.5C 6.58693,596.104 4.42026,586.437 3.5,576.5C 4.74975,576.423 5.58309,575.756 6,574.5C 9.84841,586.525 14.5151,598.192 20,609.5C 31.8176,627.992 48.651,636.159 70.5,634C 81.4274,630.691 92.2607,627.191 103,623.5C 103.18,625.488 103.014,627.488 102.5,629.5 Z"/></g>
<g><path style="opacity:0.996" fill="#1a1a1a" d="M 188.5,577.5 C 198.792,582.752 203.292,591.086 202,602.5C 200.92,604.996 199.586,607.33 198,609.5C 191.626,616.206 185.626,623.206 180,630.5C 176.942,634.062 173.442,637.062 169.5,639.5C 168.111,645.667 166.111,651.667 163.5,657.5C 162.998,658.521 162.332,658.688 161.5,658C 160.035,656.226 158.702,654.392 157.5,652.5C 159.725,645.792 161.225,638.792 162,631.5C 165.362,629.65 168.362,627.317 171,624.5C 182.061,610.822 187.894,595.155 188.5,577.5 Z"/></g>
<g><path style="opacity:0.999" fill="#4b4b4b" d="M 291.5,607.5 C 290.841,610.455 290.508,613.455 290.5,616.5C 277.086,615.595 268.586,608.595 265,595.5C 264.322,593.402 264.489,591.402 265.5,589.5C 270.457,586.377 274.624,582.377 278,577.5C 283.184,587.231 287.684,597.231 291.5,607.5 Z"/></g>
<g><path style="opacity:0.999" fill="#acb9bc" d="M 381.5,579.5 C 383.361,582.022 385.361,584.522 387.5,587C 384.934,591.316 382.267,595.483 379.5,599.5C 378.917,595.663 378.25,591.83 377.5,588C 378.132,584.859 379.465,582.026 381.5,579.5 Z"/></g>
<g><path style="opacity:0.997" fill="#4c4c4c" d="M 147.5,615.5 C 147.132,609.235 148.799,603.569 152.5,598.5C 155.778,594.209 159.112,589.876 162.5,585.5C 167.179,581.242 170.679,582.242 173,588.5C 174.535,606.781 166.368,617.781 148.5,621.5C 148.795,619.265 148.461,617.265 147.5,615.5 Z"/></g>
<g><path style="opacity:0.998" fill="#aebabd" d="M 419.5,588.5 C 420.117,588.611 420.617,588.944 421,589.5C 421.667,593.167 421.667,596.833 421,600.5C 414.277,591.812 405.444,588.645 394.5,591C 393.177,591.816 392.511,592.983 392.5,594.5C 390.547,590.417 391.88,587.75 396.5,586.5C 398.713,584.789 401.213,583.789 404,583.5C 409.552,584.073 414.719,585.74 419.5,588.5 Z"/></g>
<g><path style="opacity:0.999" fill="#323232" d="M 225.5,585.5 C 231.176,585.334 236.843,585.501 242.5,586C 244.303,586.637 245.636,587.803 246.5,589.5C 233.987,594.585 220.987,596.418 207.5,595C 206.347,592.384 205.347,589.718 204.5,587C 211.679,586.829 218.679,586.329 225.5,585.5 Z"/></g>
<g><path style="opacity:0.999" fill="#393939" d="M 265.5,589.5 C 264.489,591.402 264.322,593.402 265,595.5C 268.586,608.595 277.086,615.595 290.5,616.5C 290.508,613.455 290.841,610.455 291.5,607.5C 294.395,611.693 296.395,616.359 297.5,621.5C 300.264,622.761 302.597,624.595 304.5,627C 295.267,632.779 286.6,639.279 278.5,646.5C 277.57,639.223 277.236,631.89 277.5,624.5C 273.15,624.543 269.65,622.877 267,619.5C 261.207,612.25 256.707,604.25 253.5,595.5C 257.182,592.992 261.182,590.992 265.5,589.5 Z"/></g>
<g><path style="opacity:1" fill="#cad0d1" d="M 142.5,590.5 C 143.79,591.058 144.623,592.058 145,593.5C 145.929,597.244 145.429,600.744 143.5,604C 141.421,604.808 139.421,604.641 137.5,603.5C 139.37,599.221 141.036,594.888 142.5,590.5 Z"/></g>
<g><path style="opacity:0.998" fill="#6c3636" d="M 23.5,592.5 C 44.5233,600.512 65.19,609.345 85.5,619C 71.9373,627.619 58.2706,627.619 44.5,619C 34.7198,612.385 27.7198,603.551 23.5,592.5 Z"/></g>
<g><path style="opacity:0.996" fill="#1a1a1a" d="M 253.5,595.5 C 256.707,604.25 261.207,612.25 267,619.5C 269.65,622.877 273.15,624.543 277.5,624.5C 277.236,631.89 277.57,639.223 278.5,646.5C 276.502,648.6 274.335,650.6 272,652.5C 270.122,645.972 269.122,639.305 269,632.5C 267.951,633.517 266.784,633.684 265.5,633C 255.564,623.236 246.564,612.736 238.5,601.5C 243.171,598.72 248.171,596.72 253.5,595.5 Z"/></g>
<g><path style="opacity:1" fill="#aeb9bc" d="M 415.5,608.5 C 414.984,611.899 414.15,615.232 413,618.5C 407.109,608.571 398.276,604.237 386.5,605.5C 387.748,603.351 389.248,601.351 391,599.5C 398.778,603.592 406.945,606.592 415.5,608.5 Z"/></g>
<g><path style="opacity:1" fill="#e3e7e8" d="M 386.5,605.5 C 398.276,604.237 407.109,608.571 413,618.5C 414.15,615.232 414.984,611.899 415.5,608.5C 417.117,607.962 418.784,607.629 420.5,607.5C 421.015,621.142 414.682,625.976 401.5,622C 395.897,619.952 391.064,616.786 387,612.5C 386.503,610.19 386.337,607.857 386.5,605.5 Z"/></g>
<g><path style="opacity:1" fill="#a9b5b8" d="M 134.5,624.5 C 136.045,623.77 136.878,622.437 137,620.5C 137.498,617.518 137.665,614.518 137.5,611.5C 135.833,611.5 134.167,611.5 132.5,611.5C 133.476,610.185 134.476,608.852 135.5,607.5C 138.43,608.547 140.93,610.213 143,612.5C 143.8,619.267 143.3,625.934 141.5,632.5C 139.173,629.839 136.84,627.172 134.5,624.5 Z"/></g>
<g><path style="opacity:0.999" fill="#9ea9aa" d="M 385.5,615.5 C 382.598,614.422 379.598,613.756 376.5,613.5C 381.089,607.589 384.089,608.256 385.5,615.5 Z"/></g>
<g><path style="opacity:1" fill="#d9dedf" d="M 132.5,611.5 C 134.167,611.5 135.833,611.5 137.5,611.5C 137.665,614.518 137.498,617.518 137,620.5C 136.878,622.437 136.045,623.77 134.5,624.5C 131.834,623.158 129.501,621.325 127.5,619C 129.301,616.557 130.968,614.057 132.5,611.5 Z"/></g>
<g><path style="opacity:0.999" fill="#e0e5e6" d="M 376.5,613.5 C 379.598,613.756 382.598,614.422 385.5,615.5C 387.5,616.833 389.5,618.167 391.5,619.5C 394.23,624.462 396.563,629.629 398.5,635C 395.518,635.498 392.518,635.665 389.5,635.5C 382.015,632.016 377.015,626.349 374.5,618.5C 374.436,616.443 375.102,614.777 376.5,613.5 Z"/></g>
<g><path style="opacity:0.832" fill="#353535" d="M 364.5,622.5 C 366.969,623.317 369.635,623.817 372.5,624C 376.398,627.729 380.065,631.562 383.5,635.5C 384.167,635.5 384.5,635.833 384.5,636.5C 380.598,644.639 375.931,652.305 370.5,659.5C 364.528,660.664 358.528,660.83 352.5,660C 349.833,655 347.167,650 344.5,645C 349.292,636.58 354.458,628.413 360,620.5C 361.47,621.267 362.97,621.933 364.5,622.5 Z"/></g>
<g><path style="opacity:0.999" fill="#aeb9bb" d="M 391.5,619.5 C 396.524,622.343 401.857,624.51 407.5,626C 405.556,629.61 403.223,632.943 400.5,636C 396.642,636.81 392.976,636.643 389.5,635.5C 392.518,635.665 395.518,635.498 398.5,635C 396.563,629.629 394.23,624.462 391.5,619.5 Z"/></g>
<g><path style="opacity:1" fill="#e3e7e7" d="M 137.5,638.5 C 134.575,639.639 131.575,640.139 128.5,640C 124.165,637.509 121.165,634.009 119.5,629.5C 121.461,627.037 123.628,624.703 126,622.5C 130.333,625.5 134,629.167 137,633.5C 137.494,635.134 137.66,636.801 137.5,638.5 Z"/></g>
<g><path style="opacity:0.996" fill="#656565" d="M 365.5,627.5 C 360.75,631.602 356.917,636.602 354,642.5C 353.333,644.167 353.333,645.833 354,647.5C 355.115,649 355.948,650.667 356.5,652.5C 360.5,653.833 364.5,653.833 368.5,652.5C 372.587,646.993 375.587,640.993 377.5,634.5C 379.377,635.659 379.877,637.326 379,639.5C 376.623,645.762 373.123,651.262 368.5,656C 363.584,657.723 358.584,657.89 353.5,656.5C 350.81,652.48 349.31,648.147 349,643.5C 352.047,637.125 355.881,631.292 360.5,626C 362.535,625.401 364.201,625.901 365.5,627.5 Z"/></g>
<g><path style="opacity:0.999" fill="#898989" d="M 365.5,627.5 C 368.998,630.659 372.998,632.992 377.5,634.5C 375.587,640.993 372.587,646.993 368.5,652.5C 364.5,653.833 360.5,653.833 356.5,652.5C 355.948,650.667 355.115,649 354,647.5C 353.333,645.833 353.333,644.167 354,642.5C 356.917,636.602 360.75,631.602 365.5,627.5 Z"/></g>
<g><path style="opacity:1" fill="#eaedee" d="M 317.5,644.5 C 318.811,658.164 318.811,671.83 317.5,685.5C 316.362,689.715 314.195,693.382 311,696.5C 306.831,693.85 303.831,690.183 302,685.5C 296.938,673.376 296.271,661.043 300,648.5C 301.133,646.789 302.633,646.289 304.5,647C 307.919,648.586 310.919,650.752 313.5,653.5C 313.92,646.405 312.253,639.738 308.5,633.5C 304.135,635.099 299.969,637.099 296,639.5C 295.53,638.423 295.697,637.423 296.5,636.5C 300.267,633.107 304.6,630.44 309.5,628.5C 313.238,633.309 315.904,638.642 317.5,644.5 Z"/></g>
<g><path style="opacity:0.999" fill="#abb7ba" d="M 119.5,629.5 C 121.165,634.009 124.165,637.509 128.5,640C 131.575,640.139 134.575,639.639 137.5,638.5C 134.796,644.684 130.129,646.85 123.5,645C 119.833,642 116.167,639 112.5,636C 114.703,633.628 117.037,631.461 119.5,629.5 Z"/></g>
<g><path style="opacity:0.999" fill="#d9dfe0" d="M 317.5,685.5 C 317.563,690.203 317.229,694.87 316.5,699.5C 317.791,699.263 318.791,699.596 319.5,700.5C 313.225,701.418 306.892,701.751 300.5,701.5C 293.247,683.568 289.58,664.902 289.5,645.5C 287.493,647.203 285.493,647.537 283.5,646.5C 287.644,642.927 291.978,639.594 296.5,636.5C 295.697,637.423 295.53,638.423 296,639.5C 299.969,637.099 304.135,635.099 308.5,633.5C 312.253,639.738 313.92,646.405 313.5,653.5C 310.919,650.752 307.919,648.586 304.5,647C 302.633,646.289 301.133,646.789 300,648.5C 296.271,661.043 296.938,673.376 302,685.5C 303.831,690.183 306.831,693.85 311,696.5C 314.195,693.382 316.362,689.715 317.5,685.5 Z"/></g>
<g><path style="opacity:0.999" fill="#a5b1b4" d="M 108.5,637.5 C 112.338,639.994 115.005,643.327 116.5,647.5C 109.703,648.592 103.036,647.926 96.5,645.5C 100.565,642.81 104.565,640.143 108.5,637.5 Z"/></g>
<g><path style="opacity:0.999" fill="#c6cfd1" d="M 300.5,701.5 C 292.781,702.843 285.114,704.51 277.5,706.5C 272.039,693.027 269.205,679.027 269,664.5C 272.939,657.733 277.772,651.733 283.5,646.5C 285.493,647.537 287.493,647.203 289.5,645.5C 289.58,664.902 293.247,683.568 300.5,701.5 Z"/></g>
<g><path style="opacity:1" fill="#c2cbcd" d="M 317.5,644.5 C 319.856,647.715 321.356,651.381 322,655.5C 323.894,669.179 323.894,682.845 322,696.5C 321.878,698.437 321.045,699.77 319.5,700.5C 318.791,699.596 317.791,699.263 316.5,699.5C 317.229,694.87 317.563,690.203 317.5,685.5C 318.811,671.83 318.811,658.164 317.5,644.5 Z"/></g>
<g><path style="opacity:0.999" fill="#eaedee" d="M 128.5,649.5 C 131.962,650.482 135.629,650.815 139.5,650.5C 140.092,666.222 135.926,680.556 127,693.5C 124.129,697.016 120.629,699.683 116.5,701.5C 115.066,699.78 114.233,697.78 114,695.5C 112.484,680.148 113.984,665.148 118.5,650.5C 118.62,649.414 119.287,648.747 120.5,648.5C 123.115,649.269 125.781,649.603 128.5,649.5 Z"/></g>
<g><path style="opacity:0.999" fill="#cad2d4" d="M 118.5,650.5 C 113.984,665.148 112.484,680.148 114,695.5C 114.233,697.78 115.066,699.78 116.5,701.5C 120.629,699.683 124.129,697.016 127,693.5C 135.926,680.556 140.092,666.222 139.5,650.5C 135.629,650.815 131.962,650.482 128.5,649.5C 134.178,649.329 138.178,646.662 140.5,641.5C 141.002,640.479 141.668,640.312 142.5,641C 152.235,649.284 159.402,659.451 164,671.5C 162.094,687.551 156.094,701.884 146,714.5C 142.09,710.792 137.59,707.958 132.5,706C 124.319,704.353 116.152,702.853 108,701.5C 106.616,685.084 108.616,669.084 114,653.5C 115.271,652.117 116.771,651.117 118.5,650.5 Z"/></g>
<g><path style="opacity:1" fill="#eceeee" d="M 302.5,723.5 C 297.072,721.607 292.406,718.441 288.5,714C 283.959,712.886 279.959,713.886 276.5,717C 274.451,719.593 272.285,722.093 270,724.5C 269.536,723.906 269.369,723.239 269.5,722.5C 275.602,711.102 285.269,705.269 298.5,705C 307.159,704.095 315.826,703.762 324.5,704C 316.081,709.251 308.748,715.751 302.5,723.5 Z"/></g>
<g><path style="opacity:1" fill="#eceeee" d="M 147.5,724.5 C 147.565,724.938 147.399,725.272 147,725.5C 142.946,718.891 137.113,714.891 129.5,713.5C 125.418,716.075 121.751,719.242 118.5,723C 117.255,723.791 115.922,724.291 114.5,724.5C 108.163,716.001 100.163,709.501 90.5,705C 105.471,704.153 120.138,705.819 134.5,710C 140.802,713.132 145.136,717.966 147.5,724.5 Z"/></g>
<g><path style="opacity:1" fill="#e2e6e7" d="M 358.5,708.5 C 351.963,708.441 345.629,709.441 339.5,711.5C 337.534,714.549 337.034,717.882 338,721.5C 345.958,734.734 357.792,741.067 373.5,740.5C 372.942,741.79 371.942,742.623 370.5,743C 352.577,747.58 338.077,742.414 327,727.5C 323.693,721.804 322.527,715.804 323.5,709.5C 335.017,703.345 346.684,703.012 358.5,708.5 Z"/></g>
<g><path style="opacity:1" fill="#e0e4e5" d="M 94.5,710.5 C 96.2585,713.977 96.7585,717.643 96,721.5C 84.131,744.359 65.9643,752.193 41.5,745C 38.0661,742.297 36.0661,738.797 35.5,734.5C 39.7722,740.264 45.4388,742.43 52.5,741C 65.045,739.102 74.2116,732.602 80,721.5C 81.8923,715.958 80.0589,712.458 74.5,711C 68.899,709.783 63.2324,709.283 57.5,709.5C 62.362,706.788 67.6953,705.455 73.5,705.5C 80.7815,706.071 87.7815,707.737 94.5,710.5 Z"/></g>
<g><path style="opacity:0.998" fill="#fdfdfd" d="M 358.5,708.5 C 367.777,711.103 375.11,716.436 380.5,724.5C 381.154,731.308 378.821,736.641 373.5,740.5C 357.792,741.067 345.958,734.734 338,721.5C 337.034,717.882 337.534,714.549 339.5,711.5C 345.629,709.441 351.963,708.441 358.5,708.5 Z"/></g>
<g><path style="opacity:0.997" fill="#fdfdfd" d="M 57.5,709.5 C 63.2324,709.283 68.899,709.783 74.5,711C 80.0589,712.458 81.8923,715.958 80,721.5C 74.2116,732.602 65.045,739.102 52.5,741C 45.4388,742.43 39.7722,740.264 35.5,734.5C 36.6225,729.599 38.2891,724.932 40.5,720.5C 44.9995,715.08 50.6661,711.414 57.5,709.5 Z"/></g>
<g><path style="opacity:0.999" fill="#d0d7d9" d="M 323.5,709.5 C 322.527,715.804 323.693,721.804 327,727.5C 338.077,742.414 352.577,747.58 370.5,743C 371.942,742.623 372.942,741.79 373.5,740.5C 378.821,736.641 381.154,731.308 380.5,724.5C 385.023,729.216 387.69,734.883 388.5,741.5C 388.5,745.167 388.5,748.833 388.5,752.5C 365.559,754.007 343.225,751.174 321.5,744C 311.63,737.706 308.63,728.873 312.5,717.5C 315.601,714.067 319.268,711.4 323.5,709.5 Z"/></g>
<g><path style="opacity:0.999" fill="#ced6d8" d="M 94.5,710.5 C 97.7198,712.603 100.72,714.936 103.5,717.5C 108.175,731.308 103.841,740.808 90.5,746C 70.2624,751.904 49.5957,754.071 28.5,752.5C 28.5,748.833 28.5,745.167 28.5,741.5C 29.9831,733.027 33.9831,726.027 40.5,720.5C 38.2891,724.932 36.6225,729.599 35.5,734.5C 36.0661,738.797 38.0661,742.297 41.5,745C 65.9643,752.193 84.131,744.359 96,721.5C 96.7585,717.643 96.2585,713.977 94.5,710.5 Z"/></g>
<g><path style="opacity:1" fill="#c8d0d2" d="M 302.5,723.5 C 295.728,733.209 290.395,743.709 286.5,755C 279.924,756.377 273.257,756.877 266.5,756.5C 265.795,749.173 265.628,741.84 266,734.5C 266.259,730.11 267.426,726.11 269.5,722.5C 269.369,723.239 269.536,723.906 270,724.5C 272.285,722.093 274.451,719.593 276.5,717C 279.959,713.886 283.959,712.886 288.5,714C 292.406,718.441 297.072,721.607 302.5,723.5 Z"/></g>
<g><path style="opacity:1" fill="#c8d0d2" d="M 147.5,724.5 C 148.6,726.277 149.434,728.277 150,730.5C 150.667,739.167 150.667,747.833 150,756.5C 143.256,757.479 136.422,757.812 129.5,757.5C 126.388,745.612 121.388,734.612 114.5,724.5C 115.922,724.291 117.255,723.791 118.5,723C 121.751,719.242 125.418,716.075 129.5,713.5C 137.113,714.891 142.946,718.891 147,725.5C 147.399,725.272 147.565,724.938 147.5,724.5 Z"/></g>
<g><path style="opacity:1" fill="#acb8bb" d="M 312.5,717.5 C 308.63,728.873 311.63,737.706 321.5,744C 343.225,751.174 365.559,754.007 388.5,752.5C 388.5,748.833 388.5,745.167 388.5,741.5C 389.824,746.234 389.824,751.067 388.5,756C 355.835,756.5 323.168,756.667 290.5,756.5C 293.971,741.215 301.304,728.215 312.5,717.5 Z"/></g>
<g><path style="opacity:1" fill="#b0bdc0" d="M 103.5,717.5 C 109.228,722.733 114.061,728.733 118,735.5C 121.074,741.641 123.574,747.974 125.5,754.5C 93.1837,756.493 60.5171,757.16 27.5,756.5C 27.1795,751.305 27.5128,746.305 28.5,741.5C 28.5,745.167 28.5,748.833 28.5,752.5C 49.5957,754.071 70.2624,751.904 90.5,746C 103.841,740.808 108.175,731.308 103.5,717.5 Z"/></g>
<g><path style="opacity:0.92" fill="#717a7c" d="M 125.5,754.5 C 126.404,755.209 126.737,756.209 126.5,757.5C 93.3291,757.832 60.3291,757.498 27.5,756.5C 60.5171,757.16 93.1837,756.493 125.5,754.5 Z"/></g>
</svg>
